<?xml version="1.0" encoding="utf-8"?>
<!-- Generator: Adobe Illustrator 28.1.0, SVG Export Plug-In . SVG Version: 6.00 Build 0)  -->
<svg version="1.1" id="Layer_1" xmlns="http://www.w3.org/2000/svg" xmlns:xlink="http://www.w3.org/1999/xlink" x="0px" y="0px"
	 viewBox="0 0 1060.47 431.1" style="enable-background:new 0 0 1060.47 431.1;" xml:space="preserve">
<style type="text/css">
	.st0{fill:#F2F1F1;}
	.st1{fill:#F6F6F6;}
</style>
<g>
	<g>
		<path class="st0" d="M213.58,142.92c-7.14-2.73-14.9-4.23-23.01-4.23c-0.91,0-1.8,0.02-2.7,0.06c-5.21,0.22-10.26,1.04-15.08,2.43
			l19.61-124.03l17.51,104.03L213.58,142.92z"/>
		<path class="st0" d="M251.74,223.02c2.06-6.3,3.18-13.02,3.18-20c0-0.92-0.02-1.82-0.06-2.73c-0.28-6.65-1.56-13.03-3.7-19
			l12.25,1.94l115.9,18.33L251.74,223.02z"/>
		<g>
			<path class="st0" d="M212.26,263.61L192.8,386.69l-18.52-110.03l-2.01-11.95c4.44,1.32,9.08,2.17,13.87,2.5
				c1.47,0.1,2.95,0.15,4.44,0.15C198.19,267.36,205.49,266.04,212.26,263.61z"/>
			<path class="st0" d="M127.05,213.23c0.46,2.91,1.11,5.76,1.96,8.52l-5.91-0.94L5.92,202.29l124.05-20.9
				c-2.41,6.75-3.73,14.04-3.73,21.63C126.24,206.5,126.52,209.9,127.05,213.23z"/>
		</g>
		<path class="st1" d="M149.18,252.27L36.98,386.16l86.13-165.35l3.95-7.58c0.46,2.91,1.11,5.76,1.96,8.52
			C132.67,233.8,139.77,244.35,149.18,252.27z"/>
		<path class="st1" d="M186.14,267.21l-11.86,9.45l-137.3,109.5l112.19-133.89c6.67,5.62,14.52,9.91,23.1,12.44
			C176.71,266.03,181.36,266.88,186.14,267.21z"/>
		<path class="st1" d="M350.7,8.9l-87.3,174.33l-8.54,17.06c-0.28-6.65-1.56-13.03-3.7-19c-4.11-11.46-11.38-21.41-20.76-28.82
			L350.7,8.9z"/>
		<path class="st1" d="M350.7,8.9l-120.3,143.57c-5.05-3.97-10.7-7.21-16.81-9.55c-7.14-2.73-14.9-4.23-23.01-4.23
			c-0.91,0-1.8,0.02-2.7,0.06l22.04-17.57L350.7,8.9z"/>
		<path class="st1" d="M56.56,190.01l-13.91,2.48c4.78-74.46,63.94-134.53,139.13-142.8l-3.22,21.15
			C114.1,76.41,61.14,125.06,56.56,190.01z"/>
		<path class="st1" d="M56.78,214.3c2.1,24.71,10.86,49.71,26.35,71.37l-5.6,11.95c-19.97-24.43-32.83-54.3-34.9-86.26L56.78,214.3z
			"/>
		<path class="st1" d="M182.43,346.01l1.74,12.11c-25.48-3.53-49.52-13.19-70.33-27.33l9.01-7.53
			C139.56,333.92,159.41,341.89,182.43,346.01z"/>
		<path class="st1" d="M234.54,356.92c-9.23,1.78-18.83,2.71-28.73,2.71c-1.73,0-3.45-0.03-5.18-0.09l2.65-10.94
			c9.76,0.71,20.01,0.77,30.76,0.1h0.23L234.54,356.92z"/>
		<path class="st1" d="M270.88,65.66l-19.04,14.91c-14.11-5.56-29.19-8.98-44.7-9.83l-3.82-21.98
			C227.63,49.31,250.56,55.36,270.88,65.66z"/>
		<path class="st1" d="M335.93,127.14l-21.41,0.4c-3.54-4.63-7.39-9.05-11.5-13.22l8.58-19.04
			C321.03,104.8,329.22,115.51,335.93,127.14z"/>
		<path class="st1" d="M232.88,203.94c0,22.84-18.64,41.37-41.63,41.37c-8.46,0-16.34-2.51-22.91-6.82l4.14-2.66
			c5.49,2.83,11.79,4.43,18.46,4.43c21.59,0,39.11-16.76,39.11-37.43c0-20.68-17.51-37.43-39.11-37.43
			c-8.69,0-16.73,2.71-23.22,7.31l-2.58-0.95c7.14-5.73,16.23-9.16,26.11-9.16C214.25,162.57,232.88,181.1,232.88,203.94z"/>
	</g>
	<rect x="262.11" y="351.65" class="st1" width="790.34" height="2.7"/>
	<g>
		<g>
			<path class="st1" d="M306.14,308.99H278.2c-3.46,0-6.04-0.81-7.75-2.44s-2.56-3.7-2.56-6.22v-7.82h-5.57v8.33
				c0,2.61,0.6,4.91,1.79,6.92c1.19,2.01,2.9,3.56,5.12,4.64c2.22,1.09,4.83,1.64,7.82,1.64h34.66V283.1h-5.57V308.99z"/>
			<rect x="289.55" y="275.8" class="st1" width="6.02" height="6.47"/>
			<rect x="277.5" y="275.8" class="st1" width="6.02" height="6.47"/>
			<path class="st1" d="M345.48,289.19c1.75-4.4,2.63-9.18,2.63-14.35v-11.15h-5.58v11.15c0,4.31-0.45,8.05-1.34,11.21
				c-5.21-3.46-11.52-6.32-18.9-8.59v5.51c6.45,1.79,11.94,4.38,16.47,7.75c-4.02,6.45-10.88,12.54-20.57,18.26l2.31,5.06h32.87
				c0.43-2.14,0.64-4.19,0.64-6.15c0-3.37-0.75-6.7-2.24-10C350.27,294.61,348.18,291.71,345.48,289.19z M348.18,308.99h-22.3
				c7.52-4.57,13.1-9.63,16.73-15.19c2.09,2.22,3.57,4.48,4.42,6.76c0.85,2.29,1.28,4.71,1.28,7.27
				C348.3,308.35,348.26,308.73,348.18,308.99z"/>
			<path class="st1" d="M376.05,282.46c-3.37,0-6.31,0.74-8.81,2.21c-2.5,1.48-4.4,3.43-5.7,5.86s-1.95,5.04-1.95,7.82
				c0,2.86,0.61,5.49,1.82,7.88c1.22,2.39,2.99,4.29,5.32,5.7c2.33,1.41,5.09,2.11,8.3,2.11h2.11l2.24-5.06h-4.04
				c-3.16,0-5.62-0.99-7.37-2.98c-1.75-1.99-2.63-4.41-2.63-7.27c0-3.25,0.92-5.93,2.75-8.04c1.84-2.11,4.38-3.17,7.63-3.17
				c1.7,0,3.61,0.24,5.7,0.71v25.82c0,3.07-0.93,5.35-2.79,6.82s-4.73,2.51-8.62,3.11l2.31,5.06c4.91-0.81,8.6-2.43,11.05-4.84
				s3.68-5.9,3.68-10.47v-29.86c-0.89-0.17-1.5-0.28-1.79-0.32C381.52,282.83,378.44,282.46,376.05,282.46z"/>
			<rect x="432.18" y="270.35" class="st1" width="6.02" height="6.47"/>
			<rect x="420.14" y="270.35" class="st1" width="6.02" height="6.47"/>
			<path class="st1" d="M517.6,264.97v44.02h-8.08c-3.8,0-6.45-1.41-7.94-4.23c0.34-1.07,0.51-2.31,0.51-3.72v-36.07h-5.58v35.56
				c0,2.44-0.75,4.45-2.24,6.06c-1.5,1.6-3.42,2.4-5.77,2.4h-1.28c-3.5,0-6.04-1.24-7.62-3.72c0.94-2.05,1.41-4.38,1.41-6.98
				c0-2.82-0.66-5.44-1.98-7.85c-1.33-2.41-3.26-4.35-5.8-5.8c-2.54-1.45-5.57-2.18-9.07-2.18c-2.61,0-6.3,0.45-11.08,1.34v25.18
				h-5.19c-3.63,0-6.24-1.3-7.82-3.91c0.73-1.84,1.09-3.84,1.09-6.02v-15.19c-4.78-0.94-8.61-1.41-11.47-1.41
				c-3.34,0-6.25,0.74-8.75,2.21c-2.5,1.48-4.41,3.4-5.74,5.77c-1.32,2.37-1.99,4.9-1.99,7.59c0,2.35,0.46,4.48,1.38,6.38
				c0.91,1.9,2.25,3.43,4,4.58h-10.31H407c-1.79,0-3.13-0.45-4.01-1.35c-0.87-0.9-1.31-2.37-1.31-4.42v-38.25h-5.64v38.64
				c0,3.12,0.83,5.64,2.47,7.56c1.65,1.92,4.13,2.89,7.47,2.89h2.31h18.64c4.79,0,8.46-1.63,11.02-4.87
				c2.6,3.25,5.91,4.87,9.93,4.87h17.75c4.83,0,8.67-1.67,11.54-5c2.65,3.33,6,5,10.06,5h2.31c4.18,0,7.52-1.67,10-5
				c2.65,3.33,5.98,5,10,5h13.65v-49.08H517.6z M435.58,298.8c0,2.65-0.61,4.85-1.83,6.6c-1.22,1.75-2.94,2.95-5.15,3.59
				c-2.95-0.17-5.28-1.24-6.99-3.21c-1.71-1.96-2.56-4.31-2.56-7.05c0-3.25,0.91-5.93,2.75-8.04c1.83-2.11,4.36-3.17,7.56-3.17
				c1.84,0,3.91,0.26,6.22,0.77V298.8z M472.55,306.27c-1.79,1.82-4.36,2.72-7.69,2.72h-6.22V288.1c1.71-0.39,3.54-0.58,5.51-0.58
				c3.54,0,6.28,1.01,8.2,3.04c1.92,2.03,2.88,4.67,2.88,7.91C475.24,301.86,474.35,304.45,472.55,306.27z"/>
		</g>
		<g>
			<rect x="576.69" y="270.35" class="st1" width="6.02" height="6.47"/>
			<path class="st1" d="M574.58,282.46c-3.37,0-6.31,0.74-8.81,2.21c-2.5,1.48-4.4,3.43-5.7,5.86s-1.95,5.04-1.95,7.82
				c0,2.86,0.61,5.49,1.82,7.88c1.22,2.39,2.99,4.29,5.32,5.7c2.33,1.41,5.09,2.11,8.3,2.11h2.11l2.31-5.06h-4.1
				c-2.09,0-3.89-0.47-5.38-1.41c-1.5-0.94-2.62-2.19-3.39-3.75c-0.77-1.56-1.15-3.26-1.15-5.09c0-3.25,0.92-5.93,2.75-8.04
				c1.84-2.11,4.36-3.17,7.56-3.17c1.79,0,3.72,0.26,5.77,0.77v32.17h-21.15c-3.46,0-6.04-0.81-7.75-2.44
				c-1.7-1.62-2.56-3.7-2.56-6.22V298.1h-5.58v14.16c0,4.01,1.32,7.22,3.97,9.61c2.65,2.39,6.24,3.59,10.77,3.59h27.87v-41.59
				l-1.73-0.32C579.77,282.83,576.67,282.46,574.58,282.46z"/>
			<rect x="564.65" y="270.35" class="st1" width="6.02" height="6.47"/>
			<rect x="637.76" y="259.91" class="st1" width="5.7" height="6.22"/>
			<rect x="631.61" y="270.35" class="st1" width="6.02" height="6.47"/>
			<rect x="643.66" y="270.35" class="st1" width="6.02" height="6.47"/>
			<path class="st1" d="M681.66,308.99h-8.08c-4.18,0-7.13-1.43-8.84-4.29c0.34-1.24,0.51-2.46,0.51-3.65v-20.63h-5.57v20.12
				c0,2.52-0.7,4.56-2.08,6.12c-1.39,1.56-3.26,2.34-5.61,2.34c-1.41,0-2.8-0.36-4.17-1.09c-1.37-0.73-2.48-1.7-3.34-2.92
				c-0.85-1.22-1.28-2.51-1.28-3.88v-18h-5.58v17.43c0,2.44-0.76,4.45-2.28,6.06c-1.52,1.6-3.45,2.4-5.8,2.4h-5.38V283.1h-5.64
				v25.89h-8.07c0,0,0,0,0,0s0,0,0,0c-1.88,0-3.38-0.42-4.52-1.25c-1.13-0.83-2.08-2-2.85-3.49V283.1h-5.58v31.08
				c0,3.16-0.71,5.49-2.11,6.99c-1.41,1.49-3.65,2.43-6.73,2.82l2.24,5.06c8.12-1.58,12.18-6.62,12.18-15.12v-2.82
				c2.09,1.97,4.55,2.95,7.37,2.95c0,0,0,0,0,0s0,0,0,0h20.12c2.35,0,4.42-0.55,6.21-1.64c1.79-1.09,3.23-2.53,4.29-4.32
				c2.78,3.97,6.58,5.96,11.41,5.96c4.4,0,7.84-1.77,10.32-5.32c1.32,1.84,2.84,3.18,4.55,4.04c1.71,0.85,3.78,1.28,6.21,1.28h13.65
				v-49.08h-5.57V308.99z"/>
			<rect x="698.12" y="264.97" class="st1" width="5.58" height="49.08"/>
			<rect x="766.26" y="270.35" class="st1" width="6.02" height="6.47"/>
			<path class="st1" d="M796.7,308.99h-8.07c-3.63,0-6.22-1.3-7.75-3.91c0.68-1.75,1.02-3.76,1.02-6.02v-15.19
				c-4.79-0.94-8.58-1.41-11.41-1.41c-3.33,0-6.25,0.74-8.74,2.21c-2.5,1.48-4.41,3.4-5.74,5.77c-1.33,2.37-1.99,4.9-1.99,7.59
				c0,2.39,0.46,4.53,1.38,6.41c0.92,1.88,2.26,3.39,4.01,4.55h-18.71c-3.5,0-6.11-0.81-7.82-2.44c-1.71-1.62-2.56-3.7-2.56-6.22
				v-7.82h-5.58v8.33c0,2.61,0.6,4.91,1.79,6.92c1.2,2.01,2.92,3.56,5.16,4.64c2.24,1.09,4.86,1.64,7.85,1.64h28.2
				c4.83,0,8.48-1.63,10.96-4.87c2.6,3.25,5.91,4.87,9.93,4.87h13.65v-49.08h-5.58V308.99z M776.32,298.8c0,2.65-0.6,4.85-1.79,6.6
				c-1.2,1.75-2.93,2.95-5.19,3.59c-2.95-0.17-5.27-1.24-6.98-3.21c-1.71-1.96-2.56-4.31-2.56-7.05c0-3.25,0.92-5.93,2.76-8.04
				c1.83-2.11,4.38-3.17,7.62-3.17c1.88,0,3.93,0.26,6.15,0.77V298.8z"/>
			<path class="st1" d="M880,304.18l-3.52-8.84c-1.5-3.89-3.61-7.01-6.34-9.36c-2.73-2.35-6.11-3.52-10.12-3.52
				c-2.27,0-4.2,0.22-5.8,0.67c-1.6,0.45-3.4,1.16-5.41,2.14l2.18,4.68c2.52-1.37,5.08-2.05,7.69-2.05c3.03,0,5.52,0.73,7.47,2.18
				c1.94,1.45,3.56,3.7,4.84,6.73l3.59,8.71l0.19,0.45c-5.21,2.01-11,3.01-17.37,3.01h-12.75h-6.48v-25.12
				c-0.89-0.17-1.5-0.28-1.79-0.32c-3.76-0.73-6.83-1.09-9.22-1.09c-3.37,0-6.31,0.74-8.81,2.21c-2.5,1.48-4.4,3.43-5.7,5.86
				c-1.3,2.44-1.95,5.04-1.95,7.82c0,2.86,0.61,5.49,1.82,7.88c1.22,2.39,2.99,4.29,5.32,5.7c2.33,1.41,5.09,2.11,8.3,2.11h2.11
				l2.24-5.06h-4.04c-3.16,0-5.62-0.99-7.37-2.98c-1.75-1.99-2.63-4.41-2.63-7.27c0-3.25,0.92-5.93,2.75-8.04
				c1.84-2.11,4.38-3.17,7.63-3.17c1.7,0,3.61,0.24,5.7,0.71v25.82c0,3.07-0.93,5.35-2.79,6.82s-4.73,2.51-8.62,3.11l2.31,5.06
				c4.83-0.81,8.48-2.4,10.96-4.77c2.48-2.37,3.74-5.78,3.78-10.22h6.48h12.75c3.21,0,6.53-0.4,9.97-1.19
				c3.44-0.79,6.57-1.91,9.39-3.36c2.35,2.82,5.32,4.33,8.91,4.55l2.18-4.94C883.75,308.78,881.15,307.13,880,304.18z"/>
			<rect x="857.7" y="321.29" class="st1" width="6.02" height="6.47"/>
			<rect x="921.6" y="270.35" class="st1" width="6.02" height="6.47"/>
			<rect x="909.56" y="270.35" class="st1" width="6.02" height="6.47"/>
			<path class="st1" d="M958.84,285.67h-13.52l19.74-20.7H958l-18.71,20.7l2.25,5.06h16.6c4.02,0,6.94,0.85,8.78,2.56
				c1.83,1.71,2.75,4.06,2.75,7.05c0,2.65-0.66,5.53-1.98,8.65h-31.53h-1.28c-1.84,0-3.2-0.45-4.07-1.35s-1.31-2.37-1.31-4.42
				l0.06-19.48l-3.14-0.51c-3.2-0.51-5.83-0.77-7.88-0.77c-3.37,0-6.31,0.74-8.81,2.21c-2.5,1.48-4.4,3.43-5.71,5.86
				c-1.3,2.44-1.95,5.04-1.95,7.82c0,2.86,0.62,5.49,1.86,7.88c1.24,2.39,3.02,4.29,5.35,5.7c2.33,1.41,5.07,2.11,8.23,2.11h2.69
				l2.24-5.06h-4.61c-3.16,0-5.62-0.99-7.37-2.98c-1.75-1.99-2.63-4.41-2.63-7.27c0-3.25,0.92-5.93,2.76-8.04
				c1.83-2.11,4.38-3.17,7.62-3.17c1.58,0,3.48,0.26,5.7,0.77v15.32c0,3.16,0.82,5.69,2.44,7.59c1.63,1.9,4.1,2.85,7.44,2.85h2.37
				h35.24c2.65-5.51,3.98-10.17,3.98-13.97c0-4.44-1.38-7.96-4.14-10.54C968.48,286.96,964.34,285.67,958.84,285.67z"/>
			<rect x="1030.47" y="270.35" class="st1" width="6.02" height="6.47"/>
			<path class="st1" d="M1046.36,280.41v28.58h-6.21c-1.63,0-3.21-0.34-4.74-1.03c-1.54-0.68-2.8-1.6-3.78-2.76
				c-0.98-1.15-1.52-2.41-1.6-3.78V283.1h-5.58v17.43c0,2.44-0.76,4.45-2.28,6.06c-1.52,1.6-3.45,2.4-5.8,2.4h-5.38V283.1h-5.64
				v25.89h-8.07c0,0,0,0,0,0s0,0,0,0c-1.88,0-3.38-0.42-4.52-1.25c-1.13-0.83-2.08-2-2.85-3.49V283.1h-5.58v31.08
				c0,3.16-0.71,5.49-2.11,6.99c-1.41,1.49-3.65,2.43-6.73,2.82l2.24,5.06c8.12-1.58,12.18-6.62,12.18-15.12v-2.82
				c2.09,1.97,4.55,2.95,7.37,2.95c0,0,0,0,0,0s0,0,0,0h20.12c2.35,0,4.42-0.55,6.21-1.64c1.79-1.09,3.23-2.51,4.29-4.26
				c1.37,1.97,3.11,3.44,5.22,4.42c2.11,0.98,4.47,1.47,7.08,1.47h11.73v-33.64H1046.36z"/>
			<rect x="1024.58" y="259.91" class="st1" width="5.7" height="6.22"/>
			<rect x="1018.43" y="270.35" class="st1" width="6.02" height="6.47"/>
		</g>
	</g>
	<g>
		<path class="st1" d="M293.32,400.5c6.88,0.74,7.27,1.26,7.27,6.54v6.32c0,3.86-0.86,4.91-2.66,5.87
			c-1.64,0.89-4.69,1.26-7.35,1.26c-16.11,0-21.89-12.71-21.89-24.38c0-14.27,7.35-22.67,20.17-22.67c3.05,0,5.63,0.37,7.58,0.89
			c5.56,1.49,7.51,4.83,9.08,10.33l1.09-0.3c-0.55-3.2-0.94-8.62-1.09-11.07c-1.88-0.07-7.12-1.56-14.63-1.56
			c-15.09,0-28.93,8.33-28.93,25.27c0,15.46,10.71,25.2,27.61,25.2c5.71,0,12.67-1.71,17.36-2.68c-0.63-1.86-0.71-4.31-0.71-7.06
			v-6.17c0-4.31,0.31-4.98,4.93-5.8v-1.04h-17.83V400.5z"/>
		<path class="st1" d="M337.88,386.6c-9.07,0-18.22,6.91-18.22,17.76c0,9.81,7.35,17.61,18.45,17.61c9.08,0,18.07-6.39,18.07-17.84
			C356.18,393.96,348.52,386.6,337.88,386.6z M338.9,420.34c-8.21,0-13.38-7.06-13.38-17.09c0-9.96,5.01-15.02,11.58-15.02
			c8.13,0,13.22,7.51,13.22,16.72C350.32,416.25,345.31,420.34,338.9,420.34z"/>
		<path class="st1" d="M388.24,417c-1.49,1.71-2.81,2.15-7.43,2.15c-2.35,0-3.91-0.07-4.93-0.37c-1.25-0.45-1.8-1.49-1.8-4.09
			v-20.51c0-4.39,0.47-4.91,5.48-5.8v-0.89h-16.19v0.89c4.77,0.74,5.39,1.04,5.39,5.8v19.84c0,4.76-0.39,5.35-6.18,6.17v0.89h27.53
			c0.47-1.49,1.87-6.84,2.35-9.14l-1.09-0.15C390.27,414.39,389.18,415.95,388.24,417z"/>
		<path class="st1" d="M416.85,387.49h-19.16v0.89c4.93,0.97,5.39,1.49,5.39,5.8v20.14c0,4.61-0.31,5.05-5.39,5.87v0.89h16.66v-0.89
			c-5.71-0.97-5.94-1.49-5.94-5.87v-9.22h7.35c4.38,0,4.77,0.67,5.71,4.53h1.02v-11.15h-1.02c-0.86,3.94-1.25,4.68-5.71,4.68h-7.35
			v-11.82c0-1.93,0.16-2.08,1.8-2.08h6.02c3.52,0,4.77,0.59,5.63,1.78c0.86,1.11,1.56,2.97,2.11,4.76l1.02-0.15
			c-0.31-3.34-0.39-6.91-0.47-8.32C422.25,387.49,419.51,387.49,416.85,387.49z"/>
		<path class="st1" d="M480.89,415.66c-1.96,2.82-3.05,3.49-6.8,3.49h-7.74c-4.38,0-6.49-0.15-6.49-5.13v-17.61h9.86
			c4.93,0,5.47,0.74,6.8,5.95h1.02v-13.97h-1.02c-0.93,4.98-1.64,5.95-6.96,5.95h-9.7v-17.24c0-2.08,0.15-2.3,2.27-2.3h8.52
			c4.62,0,5.55,0.15,7.04,2.23c0.79,1.26,1.88,3.94,2.43,5.87l1.09-0.15c-0.23-2.15-0.55-7.51-0.55-10.11
			c-1.49,0.15-3.83,0.15-10.56,0.15h-22.13v0.89c6.1,1.11,6.34,1.56,6.34,7.95v31.07c0,6.09-0.47,6.61-7.35,7.51v0.89h35.5
			c0.63-2.23,2.03-8.1,2.43-10.55l-1.02-0.22C483,412.24,482.07,414.02,480.89,415.66z"/>
		<path class="st1" d="M521.31,415.44L508.8,386.6l-1.02,0.22l-11.34,26.83c-2.27,5.35-3.6,5.87-7.04,6.54v0.89h13.06v-0.89
			l-1.25-0.22c-2.82-0.52-4.15-1.04-2.9-4.53l2.74-7.21h11.42l3.76,8.47c0.93,2.15,0,2.9-2.27,3.27l-1.25,0.22v0.89h14.54v-0.89
			C523.74,419.6,522.8,418.93,521.31,415.44z M501.76,406.29l4.85-12.34l5.16,12.34H501.76z"/>
		<path class="st1" d="M543.91,401.83l-1.25-0.67c-3.44-1.64-6.72-3.34-6.72-7.36c0-3.12,2.19-5.65,5.79-5.65
			c5.08,0,7.35,3.05,9,7.73l1.09-0.3c-0.55-2.53-0.86-5.87-1.09-8.03c-1.41-0.3-4.3-0.97-7.51-0.97c-7.27,0-11.81,3.87-11.81,9.07
			c0,4.91,3.6,7.51,8.22,9.89l2.03,1.04c3.21,1.64,6.25,3.57,6.18,7.73c-0.08,4.09-2.82,6.09-6.26,6.09
			c-5.86,0-9.38-4.01-10.72-8.92l-1.09,0.22c0.55,3.86,1.25,7.28,1.64,8.47c1.25,0.52,4.77,1.78,8.92,1.78
			c6.72,0,12.59-3.94,12.59-10.11C552.9,406.59,548.05,403.77,543.91,401.83z"/>
		<path class="st1" d="M591.05,386.23c-0.78,0.97-1.41,1.26-2.89,1.26h-23.93c-1.56,0-2.27-0.15-3.13-1.26h-0.94
			c-0.07,2.6-0.47,7.13-0.7,9.59h1.17c0.47-1.34,0.78-2.23,1.49-3.49c1.09-2.15,2.19-3.12,5.71-3.12h5.16v25.05
			c0,4.38-0.39,5.2-5.79,5.94v0.89h16.97v-0.89c-5.48-0.82-5.86-1.49-5.86-6.02V389.2h5.01c3.44,0,4.85,0.45,6.1,2.6
			c0.71,1.26,1.17,2.6,1.57,4.01l1.17-0.15c-0.08-3.12-0.24-7.28-0.24-9.44H591.05z"/>
		<path class="st1" d="M643.13,420.49c-13.92,0-21.74-9.96-21.74-24.75c0-11.74,6.57-22.3,20.41-22.3c2.9,0,6.34,0.37,8.84,1.26
			c4.38,1.56,5.56,4.83,6.96,9.36l1.25-0.22c-0.47-3.05-0.79-7.13-1.17-10.55c-2.51-0.3-7.28-1.56-13.53-1.56
			c-17.67,0-29.48,9.81-29.48,25.34c0,12.86,8.91,25.12,28.15,25.12c5.32,0,10.95-1.19,12.98-1.71c1.17-1.86,3.44-8.18,4.15-10.63
			l-1.25-0.37C655.4,415.73,651.89,420.49,643.13,420.49z"/>
		<path class="st1" d="M685.82,386.6c-9.07,0-18.22,6.91-18.22,17.76c0,9.81,7.35,17.61,18.45,17.61c9.07,0,18.07-6.39,18.07-17.84
			C704.12,393.96,696.45,386.6,685.82,386.6z M686.83,420.34c-8.21,0-13.37-7.06-13.37-17.09c0-9.96,5.01-15.02,11.57-15.02
			c8.14,0,13.22,7.51,13.22,16.72C698.25,416.25,693.24,420.34,686.83,420.34z"/>
		<path class="st1" d="M736.72,388.38c4.93,0.67,5.55,1.64,5.79,4.68c0.16,1.93,0.23,3.79,0.23,8.77v10.78l-23.15-25.12h-9.38v0.89
			c2.58,0.37,4.3,1.19,5.79,2.9c0.71,0.74,0.71,1.56,0.71,2.75v12.71c0,4.91-0.16,6.76-0.31,8.62c-0.23,3.57-1.41,4.09-5.24,4.83
			v0.89h14.08v-0.89c-4.69-0.82-5.79-1.56-5.94-4.91c-0.15-1.78-0.31-3.64-0.31-8.55v-12.49l24.71,27.2h1.25v-19.62
			c0-4.98,0.15-7.43,0.23-8.99c0.16-2.75,1.25-3.79,5.48-4.46v-0.89h-13.92V388.38z"/>
		<path class="st1" d="M788.17,386.23c-0.78,0.97-1.41,1.26-2.89,1.26h-23.93c-1.57,0-2.27-0.15-3.13-1.26h-0.94
			c-0.08,2.6-0.47,7.13-0.71,9.59h1.17c0.47-1.34,0.79-2.23,1.49-3.49c1.09-2.15,2.19-3.12,5.71-3.12h5.16v25.05
			c0,4.38-0.39,5.2-5.79,5.94v0.89h16.97v-0.89c-5.47-0.82-5.86-1.49-5.86-6.02V389.2h5.01c3.44,0,4.85,0.45,6.1,2.6
			c0.71,1.26,1.17,2.6,1.57,4.01l1.17-0.15c-0.08-3.12-0.23-7.28-0.23-9.44H788.17z"/>
		<path class="st1" d="M861.82,415.44l-12.51-28.84l-1.02,0.22l-11.34,26.83c-2.27,5.35-3.6,5.87-7.04,6.54v0.38
			c-1.4-0.39-2.82-1.14-4.37-2.68c-1.49-1.49-2.58-2.9-4.46-5.57c-1.64-2.3-4.15-5.94-5.01-7.36c3.21-1.26,7.2-3.86,7.2-8.92
			c0-3.27-1.65-5.5-3.75-6.76c-2.19-1.34-5.08-1.78-8.84-1.78h-15.49v0.89c5.01,0.89,5.4,1.26,5.4,5.95v19.99
			c0,4.53-0.23,4.98-5.4,5.87v0.89h16.42v-0.89c-5.47-0.82-5.86-1.41-5.86-5.87v-8.18h1.88c3.21,0,3.83,0.52,5.32,2.82
			c1.09,1.78,3.99,6.17,5.79,8.47c2.19,2.82,4.38,3.72,9.07,3.94l2.11,0.15l0.12-0.44h12.94v-0.89l-1.25-0.22
			c-2.82-0.52-4.15-1.04-2.9-4.53l2.74-7.21h11.42l3.76,8.47c0.93,2.15,0,2.9-2.27,3.27l-1.25,0.22v0.89h14.54v-0.89
			C864.24,419.6,863.3,418.93,861.82,415.44z M814.51,403.54c-1.49,0.89-3.68,1.04-5.71,1.04h-3.05v-12.34
			c0-2.45,0.31-3.27,3.68-3.27c4.3,0,8.13,2.45,8.13,7.95C817.56,399.83,816.47,402.43,814.51,403.54z M842.27,406.29l4.85-12.34
			l5.16,12.34H842.27z"/>
		<path class="st1" d="M891.37,420.49c-9.07,0-14.39-6.99-14.39-16.72c0-8.47,4.54-15.61,13.3-15.61c4.85,0,10.01,1.19,11.96,8.1
			l1.02-0.22c-0.39-2.38-0.78-6.1-1.02-8.4c-1.41-0.22-5.86-1.04-10.16-1.04c-11.58,0-20.96,6.62-20.96,17.99
			c0,9.21,6.72,17.39,20.02,17.39c3.75,0,8.29-0.89,10.01-1.26c0.78-1.63,2.43-6.17,3.05-8.32l-1.02-0.3
			C900.37,417.59,897.23,420.49,891.37,420.49z"/>
		<path class="st1" d="M942.43,386.23c-0.78,0.97-1.41,1.26-2.89,1.26H915.6c-1.57,0-2.27-0.15-3.13-1.26h-0.94
			c-0.08,2.6-0.47,7.13-0.71,9.59h1.17c0.47-1.34,0.79-2.23,1.49-3.49c1.09-2.15,2.19-3.12,5.71-3.12h5.16v25.05
			c0,4.38-0.39,5.2-5.79,5.94v0.89h16.97v-0.89c-5.47-0.82-5.86-1.49-5.86-6.02V389.2h5.01c3.44,0,4.85,0.45,6.1,2.6
			c0.71,1.26,1.17,2.6,1.57,4.01l1.17-0.15c-0.08-3.12-0.23-7.28-0.23-9.44H942.43z"/>
		<path class="st1" d="M949.46,388.38c4.93,0.82,5.4,1.34,5.4,5.8v20.21c0,4.61-0.55,4.98-5.4,5.8v0.89h16.19v-0.89
			c-5.08-0.82-5.47-1.34-5.47-5.8v-20.21c0-4.61,0.39-4.98,5.47-5.8v-0.89h-16.19V388.38z"/>
		<path class="st1" d="M998.18,388.38c4.93,0.67,5.55,1.64,5.79,4.68c0.16,1.93,0.23,3.79,0.23,8.77v10.78l-23.15-25.12h-9.38v0.89
			c2.58,0.37,4.3,1.19,5.79,2.9c0.71,0.74,0.71,1.56,0.71,2.75v12.71c0,4.91-0.16,6.76-0.31,8.62c-0.23,3.57-1.41,4.09-5.24,4.83
			v0.89h14.08v-0.89c-4.69-0.82-5.79-1.56-5.94-4.91c-0.15-1.78-0.31-3.64-0.31-8.55v-12.49l24.71,27.2h1.25v-19.62
			c0-4.98,0.15-7.43,0.23-8.99c0.16-2.75,1.25-3.79,5.48-4.46v-0.89h-13.92V388.38z"/>
		<path class="st1" d="M1040.08,405.03v0.89c5.08,0.67,5.63,1.19,5.63,4.76v4.98c0,3.49-2.43,4.83-6.1,4.83
			c-10.4,0-14.94-8.55-14.94-16.8c0-9.81,5.16-15.46,13.14-15.46c7.27,0,10.56,2.9,12.12,8.47l1.17-0.22
			c-0.39-3.12-0.71-6.76-0.86-8.7c-1.88-0.3-6.02-1.19-10.32-1.19c-11.26,0-21.11,6.02-21.11,18.06c0,10.55,7.82,17.32,20.02,17.32
			c4.22,0,8.68-1.12,12.28-2.01c-0.23-1.04-0.47-2.9-0.47-4.76v-4.76c0-3.27,0.31-3.64,3.91-4.53v-0.89H1040.08z"/>
	</g>
</g>
</svg>
