<?xml version="1.0" encoding="utf-8"?>
<!-- Generator: Adobe Illustrator 27.10.0, SVG Export Plug-In . SVG Version: 6.00 Build 0)  -->
<svg version="1.1" id="Layer_1" xmlns="http://www.w3.org/2000/svg" xmlns:xlink="http://www.w3.org/1999/xlink" x="0px" y="0px"
	 viewBox="0 0 282.41 80" style="enable-background:new 0 0 282.41 80;" xml:space="preserve">
<style type="text/css">
	
		.st0{clip-path:url(#XMLID_00000059993986669189393070000011871971598453834164_);fill:url(#XMLID_00000070805903710504206980000014704098318889317036_);}
	.st1{fill:#5F636A;}
	.st2{fill:#FFFFFF;}
</style>
<g id="XMLID_307_">
	<g>
		<defs>
			<polygon id="XMLID_304_" points="204.1,1.55 204.1,1.55 204.1,78.14 280.7,78.14 280.7,1.55 			"/>
		</defs>
		<clipPath id="XMLID_00000099634066848640258620000017199777193183256763_">
			<use xlink:href="#XMLID_304_"  style="overflow:visible;"/>
		</clipPath>
		
			<radialGradient id="XMLID_00000019677991042152152770000011294050095792880539_" cx="-172.4691" cy="433.7658" r="3.0789" gradientTransform="matrix(36.0383 -31.6345 -31.6345 -36.0383 20107.1738 10275.1611)" gradientUnits="userSpaceOnUse">
			<stop  offset="0" style="stop-color:#7FBF3F"/>
			<stop  offset="0.29" style="stop-color:#7FBF3F"/>
			<stop  offset="0.44" style="stop-color:#5FB744"/>
			<stop  offset="0.4803" style="stop-color:#4BB045"/>
			<stop  offset="0.5704" style="stop-color:#22A347"/>
			<stop  offset="0.6417" style="stop-color:#099B48"/>
			<stop  offset="0.685" style="stop-color:#009848"/>
			<stop  offset="0.6969" style="stop-color:#007688"/>
			<stop  offset="0.705" style="stop-color:#0062AF"/>
			<stop  offset="0.8778" style="stop-color:#009DDF"/>
			<stop  offset="0.9" style="stop-color:#00A5E6"/>
			<stop  offset="1" style="stop-color:#00ACEC"/>
		</radialGradient>
		
			<polygon id="XMLID_305_" style="clip-path:url(#XMLID_00000099634066848640258620000017199777193183256763_);fill:url(#XMLID_00000019677991042152152770000011294050095792880539_);" points="
			166.12,34.88 247.36,-36.43 318.67,44.81 237.43,116.12 		"/>
	</g>
	<g id="XMLID_306_">
		<path id="XMLID_303_" class="st1" d="M11.98,33.9c1.12,0,2-0.91,2-2.04c0-1.08-0.91-2-2-2c-1.12,0-2.04,0.87-2.04,2
			C9.94,33.02,10.81,33.9,11.98,33.9"/>
		<path id="XMLID_302_" class="st1" d="M17.8,53.64c-1.16,0-2.04,0.87-2.04,2c0,1.12,0.87,2,2.04,2c1.08,0,2-0.91,2-2
			C19.79,54.56,18.88,53.64,17.8,53.64"/>
		<path class="st1" d="M20.79,44.87c0,1.79-0.67,2.41-2.53,2.41h-2.16V42.8c0-4.53-2.33-6.9-6.65-6.9c-5.32,0-7.73,3.7-7.73,7.36
			c0,2.66,0.87,4.7,2.45,5.78c1.83,1.21,3.37,1.46,6.86,1.46h7.44c3.95,0,6.19-1.5,6.19-5.49v-9.1h-3.87V44.87z M12.31,47.28h-2.2
			c-3.16,0-4.49-1.25-4.49-4.16c0-2.45,1.37-4.03,3.53-4.03c2.16,0,3.16,1.33,3.16,4.12V47.28z"/>
		<path id="XMLID_299_" class="st1" d="M7.32,33.9c1.12,0,2-0.91,2-2.04c0-1.08-0.91-2-2-2c-1.12,0-2,0.87-2,2
			C5.33,33.02,6.16,33.9,7.32,33.9"/>
		<path id="XMLID_298_" class="st1" d="M39.83,43.25c0-3.66-2.37-7.36-7.69-7.36h-3.03v3.2h3.33c2.16,0,3.53,1.58,3.53,4.03v4.16
			h-9.94v3.2h13.8V43.25z"/>
		<path id="XMLID_297_" class="st1" d="M22.41,53.64c-1.12,0-2,0.87-2,2c0,1.12,0.87,2,2,2c1.12,0,2.04-0.91,2.04-2
			C24.45,54.56,23.53,53.64,22.41,53.64"/>
		<rect id="XMLID_296_" x="168.53" y="28.79" class="st1" width="3.74" height="21.7"/>
		<path id="XMLID_295_" class="st1" d="M169.78,53.64v3.62c1.21,0.21,2.08,0.29,2.91,0.29c5.2,0,7.73-2.37,7.73-7.28V37.31h-3.91
			v13.01c0,2.45-1.37,3.95-3.53,3.95c-1.37,0-2.37-0.34-2.74-0.46L169.78,53.64z"/>
		<rect id="XMLID_294_" x="182.92" y="31.11" class="st1" width="3.74" height="19.37"/>
		<path class="st1" d="M122.76,49.03c1.83,1.2,3.37,1.46,6.86,1.46h1.29c-0.04,2.49-1.45,3.74-4.11,3.74
			c-1.21,0-2.66-0.17-4.24-0.71l-0.25-0.08v3.62c1.91,0.33,3.37,0.5,4.7,0.5c5.11,0,7.73-2.37,7.81-7.07h21.99
			c6.07,0,9.27-1.58,9.27-7.24c0-3.66-2.37-7.36-7.69-7.36c-4.32,0-6.65,2.37-6.65,6.9v4.49h-3.41c0.5-0.96,0.79-2.12,0.79-3.53
			c0-3.2-2.04-6.9-7.69-6.9h-0.5l7.32-8.07h-4.53c-2.74,3.08-6.86,7.57-7.36,8.02v3.24h5.32c1.62,0,3.57,0.62,3.57,3.53
			c0,2.7-1.2,3.7-4.49,3.7h-6.07V42.8c0-4.53-2.33-6.9-6.65-6.9c-5.32,0-7.73,3.7-7.73,7.36C120.31,45.91,121.18,47.95,122.76,49.03
			 M155.52,43.21c0-2.79,1-4.12,3.16-4.12c2.16,0,3.53,1.58,3.53,4.03c0,2.91-1.33,4.16-4.45,4.16h-2.25V43.21z M127.75,39.09
			c2.16,0,3.12,1.33,3.12,4.12v4.07h-2.16c-3.16,0-4.49-1.25-4.49-4.16C124.22,40.67,125.59,39.09,127.75,39.09"/>
		<path class="st1" d="M100.65,50.49c1.62,0,3.28-0.38,4.2-0.91c1.21-0.71,1.75-1.91,1.83-2.54c0.13-0.5,0.17-1,0.17-2.04V28.83
			h-3.86v16.05c0,1.79-0.67,2.41-2.54,2.41h-0.91c-0.63,0-1.25-0.12-1.96-0.37c0.08-0.5,0.13-1.04,0.13-1.71v-7.9h-3.78v7.65
			c0,1.66-0.75,2.37-2.45,2.37c-0.63,0-1.25-0.08-1.91-0.29c0.08-0.54,0.12-1.08,0.12-1.87v-7.86h-3.78v7.65
			c0,1.5-0.37,2.12-1.45,2.33h-1.96c-0.29,0-0.95,0.04-0.95-0.33v-9.64h-3.78v9.98h-6.4c2.08-2.2,3.33-4.53,3.33-6.32
			c0-3.41-4.12-5.16-8.19-5.16c-4.07,0-8.19,1.75-8.19,5.16c0,2.41,2.16,5.03,3.41,6.32h-5.82v-4.49c0-4.53-2.33-6.9-6.65-6.9
			c-5.32,0-7.69,3.7-7.69,7.36c0,2.66,0.83,4.7,2.41,5.78c1.83,1.21,3.37,1.46,6.86,1.46h1.29c-0.04,2.49-1.41,3.74-4.11,3.74
			c-1.21,0-2.66-0.17-4.24-0.71l-0.25-0.08v3.62c1.92,0.33,3.37,0.5,4.7,0.5c5.11,0,7.73-2.37,7.82-7.07h25.77
			c0.75,0.08,1.5,0.12,2.24,0.12c1.45,0,2.53-0.25,3.57-0.83c1.37,0.54,2.99,0.83,4.57,0.83c1.46,0,2.66-0.29,3.57-0.91
			c1.25,0.54,2.79,0.79,4.53,0.79H100.65z M52.09,47.28h-2.2c-3.16,0-4.49-1.25-4.49-4.16c0-2.45,1.37-4.03,3.53-4.03
			c2.16,0,3.16,1.33,3.16,4.12V47.28z M66.48,47.03c-0.54,0-4.57-3.82-4.57-6.07c0-1.25,2.41-1.91,4.7-1.91
			c2.2,0,4.49,0.67,4.49,1.91C71.09,43.17,67.22,47.03,66.48,47.03"/>
		<rect id="XMLID_287_" x="109.79" y="28.79" class="st1" width="3.74" height="21.7"/>
		<path id="XMLID_286_" class="st1" d="M187.57,27.7h-2.08c-0.87-0.04-1.08-0.21-1.08-0.87c0-0.75,0.25-0.92,1.16-0.92
			c0.58,0,1,0.13,1.62,0.58v-1.83l-0.29-0.12c-0.46-0.21-0.87-0.29-1.37-0.29c-1.91,0-2.99,0.91-2.99,2.62
			c0,0.38,0.08,0.62,0.17,0.83H182v1.66h5.57V27.7z"/>
		<path class="st1" d="M181.98,63.64c-4.07,0-7.4,3.33-7.4,7.4s3.33,7.4,7.4,7.4c4.07,0,7.36-3.33,7.36-7.4
			S186.06,63.64,181.98,63.64 M181.98,75.07c-2.24,0-4.03-1.83-4.03-4.03c0-2.2,1.79-3.99,4.03-3.99c2.2,0,3.99,1.79,3.99,3.99
			C185.97,73.24,184.19,75.07,181.98,75.07"/>
		<path id="XMLID_283_" class="st1" d="M154.89,63.47c-1.62,0-3.29,0.33-4.62,0.87c-1.08-0.62-2.12-0.87-3.62-0.87
			c-1.87,0-3.78,0.25-5.86,0.96l-0.38,0.12v13.59h3.7V67.01c0.75-0.25,1.33-0.33,2.08-0.33c1.83,0,2.37,0.58,2.37,2.49v8.98h3.74
			v-9.23c0-0.83-0.04-1.37-0.17-1.87c0.75-0.25,1.33-0.37,2-0.37c1.75,0,2.53,0.79,2.53,2.49v8.98h3.7v-9.27
			c0-1.83-0.29-2.91-1.12-3.82C158.33,64.05,156.8,63.47,154.89,63.47"/>
		<path id="XMLID_282_" class="st1" d="M169.71,75.22c-2.47,0-3.88-1.53-3.88-4.2c0-2.73,1.43-4.31,3.92-4.31
			c0.52,0,0.95,0.06,1.37,0.18c0,0,0.76,0.22,1.43,0.75l1.57-2.68c-0.85-0.71-1.86-1.02-2.2-1.11c-0.96-0.29-2.37-0.34-2.37-0.34
			c-4.45,0-7.43,3.09-7.43,7.67c0,4.41,2.83,7.26,7.22,7.26c0,0,2.94,0.13,4.91-1.7l-1.84-2.37C171.41,75,170.72,75.22,169.71,75.22
			"/>
		<path id="XMLID_281_" class="st1" d="M121.48,63.6c-5.28,0-7.73,2.33-7.73,7.28v7.28h3.78v-6.99v-0.33c0-2.49,1.41-4.03,3.62-4.03
			c0.91,0,1.62,0.17,2.12,0.29l0.87-3.28C122.68,63.6,121.48,63.6,121.48,63.6"/>
		<path class="st1" d="M138.26,70.46v7.69h-5.07c-3.49,0-5.03-0.25-6.86-1.46c-1.58-1.08-2.45-3.12-2.45-5.78
			c0-3.66,2.41-7.36,7.73-7.36C135.93,63.56,138.26,65.97,138.26,70.46 M134.56,70.87c0-2.79-1.08-4.16-3.24-4.16
			c-2.2,0-3.62,1.62-3.62,4.07c0,2.95,1.41,4.24,4.57,4.24h2.29V70.87z"/>
		<path class="st1" d="M111.69,70.46v7.69h-5.03c-3.49,0-5.03-0.25-6.86-1.46c-1.58-1.08-2.45-3.12-2.45-5.78
			c0-3.66,2.41-7.36,7.73-7.36C109.41,63.56,111.69,65.97,111.69,70.46 M107.87,70.87c0-2.83-1-4.16-3.2-4.16
			c-2.2,0-3.61,1.62-3.61,4.07c0,2.95,1.41,4.24,4.57,4.24h2.24V70.87z"/>
		<path id="XMLID_276_" class="st1" d="M32.45,69.35c-2.26-0.67-3.16-1.05-3.16-1.77c0.01-0.78,1.15-1.19,2.55-1.19
			c1.4,0,2.74,0.31,3.74,0.64l0.86-3.23c-1.49-0.34-3.31-0.54-4.53-0.54c-4,0-6.19,1.81-6.19,4.52c0,1.35,0.38,3.21,4.58,4.38
			c2.47,0.72,3.37,0.81,3.37,1.61c0,0.9-1.55,1.55-3.33,1.55c-1.84,0-3.7-0.8-4.84-1.36v3.52c1.35,0.55,3.05,0.97,4.77,0.97
			c4.37,0,6.95-1.85,6.95-4.71C37.24,71.58,35.92,70.39,32.45,69.35"/>
		<path id="XMLID_275_" class="st1" d="M64.09,72.74c0,1.79-0.71,2.45-2.62,2.45h-0.21c-1.91,0-2.62-0.67-2.62-2.45v-8.98h-3.7v9.23
			c0,4.28,2.41,5.45,6.11,5.45h0.63c3.95,0,6.23-1.12,6.23-5.45v-9.23h-3.82V72.74z"/>
		<path id="XMLID_274_" class="st1" d="M87.91,58.53c-1.12,0-2,0.87-2,2c0,1.12,0.87,2,2,2c1.12,0,1.99-0.87,1.99-2
			C89.91,59.44,88.99,58.53,87.91,58.53"/>
		<rect id="XMLID_273_" x="86.08" y="64.18" class="st1" width="3.66" height="13.97"/>
		<path class="st1" d="M52.87,70.46v7.69H47.8c-3.49,0-5.03-0.25-6.86-1.46c-1.58-1.08-2.45-3.12-2.45-5.78
			c0-3.66,2.41-7.36,7.73-7.36C50.54,63.56,52.87,65.97,52.87,70.46 M49.17,70.87c0-2.79-1.08-4.16-3.24-4.16
			c-2.2,0-3.62,1.62-3.62,4.07c0,2.95,1.41,4.24,4.57,4.24h2.29V70.87z"/>
		<path class="st1" d="M83.71,58.23v19.91H79.1c-3.49,0-5.03-0.25-6.86-1.45c-1.58-1.08-2.45-3.12-2.45-5.78
			c0-4.45,2.99-7.32,7.32-7.32h0.38c0.95,0,1.87,0.29,2.66,0.79v-6.15H83.71z M80.14,70.91c0-2.99-0.83-4.2-2.91-4.2
			c-2.2,0-3.62,1.62-3.62,4.07c0,2.95,1.37,4.24,4.53,4.24h2V70.91z"/>
		<path id="XMLID_268_" class="st2" d="M246.35,33.69c0.91,0.46,1.51,1.37,1.39,2.13c-0.14,0.76-0.96,1.01-1.9,0.56
			c-0.93-0.47-1.54-1.41-1.39-2.17C244.62,33.47,245.44,33.25,246.35,33.69"/>
		<path id="XMLID_267_" class="st2" d="M249.05,18.95c0.74,0.39,1.26,1.05,1.2,1.52c-0.08,0.47-0.72,0.54-1.49,0.15
			c-0.76-0.4-1.29-1.08-1.2-1.55C247.66,18.61,248.3,18.56,249.05,18.95"/>
		<path id="XMLID_266_" class="st2" d="M249.3,17.48c0.62,0.33,1.06,0.87,1.01,1.25c-0.07,0.38-0.6,0.42-1.23,0.09
			c-0.64-0.34-1.07-0.89-1.01-1.27C248.14,17.19,248.68,17.16,249.3,17.48"/>
		<path id="XMLID_265_" class="st2" d="M249.53,16.02c0.57,0.31,0.98,0.8,0.94,1.15c-0.06,0.34-0.55,0.36-1.14,0.06
			c-0.59-0.32-0.99-0.82-0.94-1.16C248.46,15.74,248.96,15.73,249.53,16.02"/>
		<path id="XMLID_264_" class="st2" d="M249.75,14.61c0.53,0.29,0.91,0.74,0.87,1.04c-0.05,0.3-0.5,0.32-1.05,0.03
			c-0.54-0.29-0.92-0.75-0.87-1.06C248.77,14.33,249.22,14.33,249.75,14.61"/>
		<path id="XMLID_263_" class="st2" d="M249.97,13.3c0.5,0.27,0.84,0.68,0.81,0.95c-0.05,0.27-0.46,0.27-0.96,0.01
			c-0.5-0.27-0.85-0.69-0.81-0.96C249.06,13.03,249.47,13.03,249.97,13.3"/>
		<path id="XMLID_262_" class="st2" d="M250.16,12.11c0.46,0.25,0.78,0.63,0.75,0.87c-0.04,0.24-0.42,0.24-0.89-0.01
			c-0.46-0.26-0.79-0.64-0.75-0.88C249.32,11.85,249.7,11.87,250.16,12.11"/>
		<path id="XMLID_261_" class="st2" d="M250.34,10.97c0.42,0.23,0.72,0.54,0.69,0.79c-0.04,0.25-0.39,0.2-0.82-0.03
			c-0.42-0.24-0.74-0.55-0.7-0.8C249.57,10.68,249.92,10.74,250.34,10.97"/>
		<path id="XMLID_260_" class="st2" d="M250.52,9.81c0.36,0.21,0.63,0.46,0.6,0.68c-0.04,0.21-0.34,0.16-0.71-0.04
			c-0.37-0.2-0.63-0.47-0.61-0.68C249.86,9.55,250.16,9.6,250.52,9.81"/>
		<path id="XMLID_259_" class="st2" d="M250.7,8.72c0.33,0.19,0.57,0.42,0.55,0.62c-0.03,0.19-0.3,0.13-0.64-0.05
			c-0.34-0.19-0.58-0.43-0.56-0.62C250.09,8.47,250.36,8.53,250.7,8.72"/>
		<path id="XMLID_258_" class="st2" d="M250.86,7.64c0.29,0.17,0.5,0.36,0.48,0.52c-0.03,0.16-0.26,0.11-0.55-0.06
			c-0.29-0.17-0.5-0.36-0.48-0.53C250.34,7.42,250.57,7.48,250.86,7.64"/>
		<path id="XMLID_257_" class="st2" d="M251.02,6.63c0.26,0.15,0.44,0.32,0.42,0.46c-0.02,0.14-0.22,0.09-0.48-0.06
			c-0.26-0.14-0.44-0.32-0.42-0.46C250.56,6.43,250.77,6.49,251.02,6.63"/>
		<path id="XMLID_256_" class="st2" d="M245.4,38.85c-0.78-0.39-1.28-1.2-1.16-1.86c0.14-0.64,0.83-0.85,1.6-0.49
			c0.75,0.38,1.25,1.17,1.15,1.82C246.87,38.99,246.19,39.21,245.4,38.85"/>
		<path id="XMLID_255_" class="st2" d="M244.8,41.99c-0.76-0.38-1.24-1.18-1.12-1.86c0.15-0.66,0.83-0.89,1.58-0.54
			c0.75,0.37,1.22,1.15,1.12,1.82C246.24,42.09,245.56,42.34,244.8,41.99"/>
		<path id="XMLID_254_" class="st2" d="M244.16,45.26c-0.74-0.36-1.2-1.17-1.07-1.85c0.15-0.67,0.82-0.92,1.55-0.58
			c0.72,0.35,1.19,1.14,1.07,1.82C245.57,45.34,244.91,45.61,244.16,45.26"/>
		<path id="XMLID_253_" class="st2" d="M243.45,48.86c-0.72-0.34-1.17-1.15-1.03-1.85c0.16-0.69,0.81-0.95,1.52-0.63
			c0.71,0.34,1.15,1.12,1.03,1.82C244.83,48.89,244.18,49.18,243.45,48.86"/>
		<path id="XMLID_252_" class="st2" d="M242.73,52.46c-0.63-0.3-1.01-1.02-0.88-1.65c0.14-0.63,0.72-0.89,1.34-0.61
			c0.61,0.29,0.99,0.99,0.88,1.63C243.94,52.46,243.36,52.73,242.73,52.46"/>
		<path id="XMLID_251_" class="st2" d="M241.84,56.81c-0.61-0.28-0.97-0.99-0.84-1.65c0.15-0.64,0.71-0.92,1.31-0.66
			c0.59,0.27,0.95,0.97,0.84,1.62C243.01,56.77,242.45,57.07,241.84,56.81"/>
		<path id="XMLID_250_" class="st2" d="M240.85,61.52c-0.54-0.24-0.85-0.9-0.73-1.52c0.14-0.61,0.65-0.89,1.19-0.67
			c0.53,0.24,0.84,0.88,0.73,1.49C241.91,61.44,241.39,61.74,240.85,61.52"/>
		<path id="XMLID_249_" class="st2" d="M239.87,66.23c-0.46-0.2-0.72-0.78-0.6-1.34c0.13-0.55,0.58-0.83,1.03-0.65
			c0.45,0.19,0.71,0.76,0.6,1.32C240.78,66.11,240.34,66.41,239.87,66.23"/>
		<path id="XMLID_248_" class="st2" d="M249.56,35.46c0.71,0.37,1.2,1.11,1.14,1.72c-0.1,0.62-0.72,0.81-1.46,0.45
			c-0.73-0.38-1.22-1.14-1.14-1.75C248.22,35.29,248.84,35.11,249.56,35.46"/>
		<path id="XMLID_247_" class="st2" d="M252.74,36.79c0.88,0.46,1.5,1.4,1.44,2.18c-0.09,0.78-0.83,1.03-1.74,0.58
			c-0.91-0.47-1.53-1.44-1.45-2.22C251.1,36.57,251.85,36.35,252.74,36.79"/>
		<path id="XMLID_246_" class="st2" d="M274.74,35.63c-0.36-0.23-0.6-0.15-0.57,0.17c0.05,0.32,0.37,0.76,0.73,1
			c0.37,0.23,0.61,0.16,0.57-0.18C275.42,36.29,275.1,35.86,274.74,35.63"/>
		<path id="XMLID_245_" class="st2" d="M272.19,33.88c-0.48-0.29-0.82-0.2-0.78,0.21c0.06,0.41,0.47,0.97,0.95,1.27
			c0.49,0.29,0.82,0.2,0.77-0.22C273.07,34.72,272.66,34.17,272.19,33.88"/>
		<path id="XMLID_244_" class="st2" d="M265.03,57.76c-0.62-0.38-1.09-0.11-1.11,0.62c0.01,0.75,0.48,1.63,1.1,2.04
			c0.63,0.38,1.09,0.11,1.1-0.65C266.11,59.02,265.64,58.15,265.03,57.76"/>
		<path id="XMLID_243_" class="st2" d="M261.99,51.71c-0.72-0.41-1.28-0.13-1.32,0.64c-0.02,0.79,0.53,1.73,1.25,2.17
			c0.73,0.42,1.29,0.13,1.31-0.67C263.23,53.06,262.69,52.13,261.99,51.71"/>
		<path id="XMLID_242_" class="st2" d="M258.78,46.48c-0.71-0.38-1.28-0.14-1.34,0.57c-0.03,0.72,0.49,1.59,1.21,1.99
			c0.72,0.38,1.29,0.13,1.33-0.6C260,47.73,259.48,46.88,258.78,46.48"/>
		<path id="XMLID_241_" class="st2" d="M256.8,25.04c-0.64-0.34-1.16-0.26-1.2,0.18c-0.02,0.46,0.46,1.08,1.11,1.43
			c0.65,0.34,1.16,0.25,1.19-0.2C257.92,26,257.43,25.38,256.8,25.04"/>
		<path id="XMLID_240_" class="st2" d="M269.9,34.54c-0.5-0.29-0.85-0.2-0.83,0.23c0.05,0.43,0.46,1.01,0.96,1.32
			c0.5,0.3,0.86,0.2,0.82-0.24C270.81,35.41,270.4,34.85,269.9,34.54"/>
		<path id="XMLID_239_" class="st2" d="M267.32,32.99c-0.53-0.3-0.92-0.21-0.9,0.23c0.03,0.44,0.47,1.03,1.01,1.35
			c0.54,0.3,0.92,0.2,0.9-0.25C268.28,33.88,267.84,33.3,267.32,32.99"/>
		<path id="XMLID_238_" class="st2" d="M262.16,32.11c-0.62-0.34-1.1-0.23-1.11,0.27c0.01,0.51,0.49,1.18,1.12,1.53
			c0.63,0.34,1.1,0.22,1.1-0.3C263.26,33.11,262.78,32.46,262.16,32.11"/>
		<path id="XMLID_237_" class="st2" d="M264.76,31.42c-0.59-0.33-1.03-0.23-1.03,0.24c0.02,0.48,0.5,1.12,1.1,1.47
			c0.6,0.33,1.04,0.22,1.03-0.26C265.83,32.39,265.36,31.76,264.76,31.42"/>
		<path id="XMLID_236_" class="st2" d="M262.04,29.85c-0.67-0.36-1.18-0.26-1.19,0.26c0.01,0.52,0.53,1.23,1.21,1.6
			c0.68,0.37,1.19,0.25,1.19-0.28C263.22,30.9,262.7,30.22,262.04,29.85"/>
		<path id="XMLID_235_" class="st2" d="M259.41,30.51c-0.69-0.37-1.24-0.25-1.27,0.29c-0.01,0.55,0.52,1.27,1.22,1.67
			c0.71,0.38,1.25,0.24,1.27-0.31C260.62,31.6,260.09,30.89,259.41,30.51"/>
		<path id="XMLID_234_" class="st2" d="M255.71,41.48c-0.73-0.37-1.33-0.16-1.4,0.51c-0.05,0.68,0.47,1.52,1.21,1.92
			c0.75,0.38,1.35,0.15,1.4-0.54C256.96,42.69,256.43,41.87,255.71,41.48"/>
		<path id="XMLID_233_" class="st2" d="M255.93,38.59c-0.79-0.41-1.43-0.2-1.51,0.5c-0.05,0.71,0.52,1.59,1.32,2.03
			c0.8,0.41,1.45,0.18,1.51-0.53C257.28,39.88,256.71,39.01,255.93,38.59"/>
		<path id="XMLID_232_" class="st2" d="M256.13,35.88c-0.85-0.44-1.55-0.24-1.63,0.48c-0.05,0.74,0.57,1.67,1.43,2.14
			c0.87,0.45,1.56,0.22,1.62-0.52C257.58,37.24,256.97,36.33,256.13,35.88"/>
		<path id="XMLID_231_" class="st2" d="M256.3,33.34c-0.83-0.42-1.5-0.26-1.57,0.42c-0.05,0.69,0.56,1.57,1.4,2.02
			c0.84,0.43,1.51,0.24,1.56-0.46C257.72,34.64,257.12,33.78,256.3,33.34"/>
		<path id="XMLID_230_" class="st2" d="M256.42,31.13c-0.72-0.37-1.31-0.24-1.37,0.32c-0.03,0.58,0.5,1.33,1.23,1.73
			c0.74,0.38,1.32,0.23,1.36-0.35C257.67,32.26,257.14,31.52,256.42,31.13"/>
		<path id="XMLID_229_" class="st2" d="M256.58,28.89c-0.78-0.41-1.41-0.28-1.47,0.3c-0.04,0.6,0.54,1.4,1.34,1.83
			c0.8,0.42,1.43,0.27,1.47-0.34C257.93,30.08,257.36,29.31,256.58,28.89"/>
		<path id="XMLID_228_" class="st2" d="M256.7,26.85c-0.76-0.4-1.37-0.3-1.43,0.25c-0.03,0.56,0.54,1.32,1.31,1.75
			c0.78,0.4,1.39,0.28,1.42-0.29C258.02,28,257.46,27.26,256.7,26.85"/>
		<path id="XMLID_227_" class="st2" d="M251.77,20.61c-0.54-0.27-0.98-0.23-1.04,0.1c-0.04,0.34,0.34,0.83,0.88,1.12
			c0.54,0.28,0.99,0.23,1.03-0.11C252.68,21.37,252.3,20.89,251.77,20.61"/>
		<path id="XMLID_226_" class="st2" d="M251.88,19.02c-0.49-0.26-0.9-0.23-0.95,0.07c-0.03,0.31,0.31,0.75,0.81,1.01
			c0.5,0.26,0.9,0.22,0.95-0.08C252.71,19.71,252.36,19.28,251.88,19.02"/>
		<path id="XMLID_225_" class="st2" d="M251.95,17.51c-0.42-0.22-0.78-0.21-0.82,0.04c-0.02,0.26,0.28,0.63,0.71,0.86
			c0.43,0.23,0.78,0.2,0.81-0.05C252.68,18.11,252.37,17.74,251.95,17.51"/>
		<path id="XMLID_224_" class="st2" d="M252.01,16.06c-0.38-0.2-0.69-0.22-0.73,0.02c-0.03,0.25,0.25,0.55,0.64,0.76
			c0.39,0.2,0.7,0.22,0.73-0.03C252.67,16.56,252.39,16.27,252.01,16.06"/>
		<path id="XMLID_223_" class="st2" d="M252.1,14.7c-0.36-0.19-0.64-0.22-0.68,0.01c-0.02,0.23,0.24,0.5,0.59,0.7
			c0.36,0.19,0.65,0.22,0.68-0.01C252.71,15.17,252.45,14.9,252.1,14.7"/>
		<path id="XMLID_222_" class="st2" d="M252.16,13.34c-0.32-0.17-0.57-0.2-0.6-0.01c-0.02,0.2,0.22,0.44,0.53,0.61
			c0.32,0.17,0.58,0.2,0.6,0C252.69,13.75,252.47,13.51,252.16,13.34"/>
		<path id="XMLID_221_" class="st2" d="M252.21,12.14c-0.29-0.16-0.53-0.2-0.55-0.02c-0.02,0.18,0.2,0.4,0.49,0.56
			c0.3,0.16,0.53,0.2,0.55,0.02C252.71,12.51,252.5,12.3,252.21,12.14"/>
		<path id="XMLID_220_" class="st2" d="M252.27,10.9c-0.26-0.14-0.46-0.18-0.48-0.03c-0.01,0.15,0.18,0.34,0.44,0.49
			c0.26,0.14,0.46,0.18,0.48,0.02C252.71,11.23,252.52,11.04,252.27,10.9"/>
		<path id="XMLID_219_" class="st2" d="M248.88,40.19c0.57,0.27,1.06,0.1,1.13-0.39c0.06-0.49-0.31-1.08-0.87-1.37
			c-0.56-0.27-1.05-0.11-1.14,0.37C247.94,39.3,248.31,39.9,248.88,40.19"/>
		<path id="XMLID_218_" class="st2" d="M248.4,43.34c0.54,0.26,1.01,0.08,1.09-0.41c0.06-0.5-0.3-1.07-0.82-1.35
			c-0.54-0.25-1.01-0.09-1.1,0.4C247.5,42.48,247.86,43.07,248.4,43.34"/>
		<path id="XMLID_217_" class="st2" d="M247.65,46.58c0.54,0.25,1,0.06,1.08-0.45c0.07-0.5-0.28-1.09-0.8-1.35
			c-0.53-0.25-0.99-0.06-1.09,0.43C246.77,45.72,247.12,46.32,247.65,46.58"/>
		<path id="XMLID_216_" class="st2" d="M246.96,50.11c0.5,0.23,0.94,0.03,1.03-0.46c0.07-0.5-0.26-1.06-0.75-1.3
			c-0.5-0.23-0.93-0.04-1.03,0.45C246.14,49.29,246.46,49.86,246.96,50.11"/>
		<path id="XMLID_215_" class="st2" d="M246.13,53.63c0.47,0.22,0.88,0.01,0.97-0.48c0.07-0.48-0.23-1.02-0.69-1.25
			c-0.46-0.21-0.88-0.01-0.97,0.47C245.37,52.86,245.66,53.4,246.13,53.63"/>
		<path id="XMLID_214_" class="st2" d="M245.16,57.82c0.44,0.2,0.83-0.02,0.92-0.5c0.07-0.48-0.21-1-0.64-1.2
			c-0.43-0.2-0.82,0.01-0.91,0.49C244.45,57.09,244.72,57.61,245.16,57.82"/>
		<path id="XMLID_213_" class="st2" d="M259.35,28.42c-0.64-0.35-1.15-0.25-1.18,0.23c-0.01,0.49,0.49,1.14,1.14,1.51
			c0.66,0.34,1.15,0.24,1.17-0.26C260.48,29.42,259.99,28.77,259.35,28.42"/>
		<path id="XMLID_212_" class="st2" d="M259.22,32.83c-0.58-0.3-1.03-0.2-1.07,0.27c-0.01,0.47,0.42,1.09,1.01,1.42
			c0.59,0.31,1.05,0.18,1.07-0.29C260.22,33.75,259.79,33.15,259.22,32.83"/>
		<path id="XMLID_211_" class="st2" d="M259.17,35.1c-0.66-0.35-1.18-0.2-1.22,0.35c-0.02,0.56,0.48,1.29,1.15,1.66
			c0.67,0.35,1.19,0.19,1.22-0.37C260.31,36.18,259.82,35.47,259.17,35.1"/>
		<path id="XMLID_210_" class="st2" d="M258.84,43.28c-0.65-0.34-1.16-0.15-1.21,0.47c-0.03,0.63,0.45,1.39,1.11,1.76
			c0.66,0.35,1.17,0.14,1.2-0.49C259.95,44.39,259.48,43.64,258.84,43.28"/>
		<path id="XMLID_209_" class="st2" d="M269.69,32.31c-0.54-0.31-0.93-0.22-0.9,0.22c0.05,0.45,0.5,1.05,1.05,1.39
			c0.55,0.32,0.93,0.22,0.89-0.24C270.68,33.23,270.22,32.63,269.69,32.31"/>
		<path id="XMLID_208_" class="st2" d="M261.76,55.63c-0.6-0.34-1.07-0.09-1.11,0.59c-0.01,0.69,0.44,1.51,1.04,1.87
			c0.61,0.35,1.08,0.09,1.1-0.61C262.8,56.79,262.35,55.99,261.76,55.63"/>
		<path id="XMLID_207_" class="st2" d="M265.07,61.82c-0.57-0.36-1.01-0.09-1.03,0.63c0,0.72,0.44,1.57,1.01,1.96
			c0.58,0.37,1.01,0.09,1.01-0.64C266.07,63.04,265.64,62.2,265.07,61.82"/>
		<path id="XMLID_206_" class="st2" d="M258.51,49.89c-0.66-0.35-1.19-0.11-1.25,0.58c-0.04,0.7,0.45,1.53,1.11,1.91
			c0.67,0.36,1.2,0.1,1.25-0.61C259.65,51.07,259.17,50.26,258.51,49.89"/>
		<path id="XMLID_205_" class="st2" d="M255.45,44.81c-0.65-0.33-1.19-0.12-1.26,0.5c-0.05,0.64,0.42,1.41,1.07,1.76
			c0.67,0.34,1.2,0.11,1.26-0.54C256.56,45.91,256.09,45.15,255.45,44.81"/>
		<path id="XMLID_204_" class="st2" d="M252.48,39.85c-0.71-0.36-1.31-0.15-1.41,0.48c-0.07,0.65,0.43,1.44,1.15,1.82
			c0.73,0.36,1.33,0.14,1.41-0.51C253.67,40.99,253.18,40.22,252.48,39.85"/>
		<path id="XMLID_203_" class="st2" d="M258.96,40.5c-0.6-0.32-1.09-0.15-1.12,0.4c-0.02,0.56,0.43,1.25,1.04,1.59
			c0.62,0.33,1.09,0.15,1.12-0.42C260,41.52,259.56,40.84,258.96,40.5"/>
		<path id="XMLID_202_" class="st2" d="M256.89,23.29c-0.57-0.3-1.02-0.24-1.05,0.13c-0.02,0.38,0.41,0.92,0.98,1.23
			c0.57,0.3,1.01,0.24,1.04-0.14C257.87,24.12,257.44,23.6,256.89,23.29"/>
		<path id="XMLID_201_" class="st2" d="M267.17,30.99c-0.45-0.25-0.77-0.18-0.75,0.17c0.03,0.35,0.39,0.83,0.84,1.1
			c0.45,0.26,0.77,0.18,0.75-0.18C267.98,31.72,267.62,31.24,267.17,30.99"/>
		<path id="XMLID_200_" class="st2" d="M262.18,36.98c-0.51-0.28-0.9-0.16-0.91,0.28c0,0.45,0.39,1.02,0.9,1.31
			c0.51,0.28,0.9,0.15,0.91-0.3C263.06,37.83,262.67,37.27,262.18,36.98"/>
		<path id="XMLID_199_" class="st2" d="M261.93,48.36c-0.63-0.35-1.12-0.13-1.15,0.52c-0.01,0.66,0.46,1.46,1.1,1.84
			c0.64,0.36,1.12,0.13,1.14-0.54C263.02,49.51,262.55,48.73,261.93,48.36"/>
		<path id="XMLID_198_" class="st2" d="M259.07,37.85c-0.59-0.31-1.06-0.17-1.09,0.35c-0.02,0.52,0.42,1.18,1.02,1.51
			c0.6,0.32,1.06,0.16,1.09-0.37C260.08,38.82,259.65,38.17,259.07,37.85"/>
		<path id="XMLID_197_" class="st2" d="M265.1,41.24c-0.57-0.32-0.99-0.17-1,0.37c0.01,0.54,0.46,1.23,1.04,1.57
			c0.57,0.33,1,0.17,0.99-0.38C266.1,42.26,265.66,41.58,265.1,41.24"/>
		<path id="XMLID_196_" class="st2" d="M267.55,68.77c-0.46-0.33-0.81-0.09-0.81,0.56c0.01,0.65,0.38,1.43,0.83,1.78
			c0.46,0.34,0.8,0.09,0.8-0.57C268.35,69.88,267.99,69.11,267.55,68.77"/>
		<path id="XMLID_195_" class="st2" d="M264.86,33.71c-0.53-0.29-0.92-0.19-0.92,0.25c0.02,0.44,0.44,1.03,0.97,1.33
			c0.54,0.3,0.93,0.19,0.91-0.26C265.79,34.58,265.38,34.01,264.86,33.71"/>
		<path id="XMLID_194_" class="st2" d="M254.24,21.95c-0.51-0.27-0.94-0.22-0.98,0.11c-0.02,0.34,0.35,0.82,0.87,1.1
			c0.52,0.27,0.94,0.22,0.97-0.12C255.12,22.69,254.75,22.22,254.24,21.95"/>
		<path id="XMLID_193_" class="st2" d="M259.43,23.03c-0.49-0.26-0.87-0.22-0.88,0.1c0,0.33,0.38,0.8,0.87,1.07
			c0.5,0.26,0.87,0.22,0.88-0.11C260.3,23.76,259.92,23.3,259.43,23.03"/>
		<path id="XMLID_192_" class="st2" d="M264.69,29.6c-0.41-0.22-0.71-0.17-0.7,0.15c0.02,0.31,0.34,0.74,0.75,0.97
			c0.41,0.23,0.71,0.16,0.7-0.16C265.42,30.24,265.09,29.83,264.69,29.6"/>
		<path id="XMLID_191_" class="st2" d="M262.05,39.59c-0.52-0.28-0.92-0.15-0.94,0.32c0,0.48,0.4,1.08,0.92,1.39
			c0.53,0.29,0.93,0.14,0.93-0.34C262.97,40.48,262.57,39.89,262.05,39.59"/>
		<path id="XMLID_190_" class="st2" d="M264.93,38.63c-0.45-0.25-0.79-0.14-0.79,0.26c0.02,0.41,0.37,0.93,0.82,1.2
			c0.46,0.26,0.79,0.14,0.78-0.27C265.73,39.41,265.37,38.89,264.93,38.63"/>
		<path id="XMLID_189_" class="st2" d="M267.87,43c-0.5-0.3-0.87-0.16-0.86,0.34c0.02,0.5,0.43,1.13,0.94,1.45
			c0.5,0.31,0.87,0.16,0.85-0.35C268.77,43.94,268.37,43.31,267.87,43"/>
		<path id="XMLID_188_" class="st2" d="M272.37,36.21c-0.38-0.23-0.64-0.15-0.61,0.18c0.04,0.34,0.37,0.79,0.75,1.04
			c0.38,0.23,0.64,0.15,0.61-0.19C273.07,36.9,272.74,36.45,272.37,36.21"/>
		<path id="XMLID_187_" class="st2" d="M259.44,21.49c-0.43-0.23-0.76-0.21-0.77,0.07c0,0.28,0.33,0.68,0.77,0.92
			c0.44,0.23,0.77,0.2,0.77-0.08C260.2,22.13,259.87,21.73,259.44,21.49"/>
		<path id="XMLID_186_" class="st2" d="M259.42,24.79c-0.45-0.24-0.8-0.19-0.82,0.12c0,0.31,0.35,0.75,0.8,1
			c0.46,0.24,0.81,0.19,0.82-0.13C260.21,25.47,259.87,25.04,259.42,24.79"/>
		<path id="XMLID_185_" class="st2" d="M268.03,64.55c-0.52-0.35-0.91-0.1-0.92,0.59c0.02,0.7,0.43,1.54,0.95,1.92
			c0.53,0.37,0.91,0.12,0.91-0.6C268.95,65.75,268.54,64.92,268.03,64.55"/>
		<path id="XMLID_184_" class="st2" d="M256.96,21.75c-0.45-0.23-0.8-0.2-0.83,0.09c-0.01,0.29,0.33,0.71,0.78,0.95
			c0.45,0.24,0.81,0.2,0.82-0.1C257.74,22.4,257.4,21.99,256.96,21.75"/>
		<path id="XMLID_183_" class="st2" d="M262.05,34.57c-0.44-0.24-0.79-0.15-0.79,0.22c0,0.38,0.35,0.87,0.79,1.12
			c0.45,0.24,0.79,0.15,0.79-0.23C262.83,35.3,262.49,34.82,262.05,34.57"/>
		<path id="XMLID_182_" class="st2" d="M262.02,28.2c-0.37-0.2-0.65-0.15-0.66,0.12c0.01,0.28,0.3,0.65,0.67,0.86
			c0.38,0.21,0.66,0.15,0.66-0.13C262.68,28.78,262.39,28.41,262.02,28.2"/>
		<path id="XMLID_181_" class="st2" d="M261.98,45.37c-0.44-0.25-0.79-0.11-0.81,0.34c-0.01,0.44,0.34,0.99,0.78,1.25
			c0.45,0.25,0.8,0.1,0.81-0.34C262.76,46.17,262.42,45.63,261.98,45.37"/>
		<path id="XMLID_180_" class="st2" d="M265.12,54.05c-0.51-0.31-0.9-0.11-0.91,0.47c0.01,0.59,0.4,1.29,0.91,1.62
			c0.52,0.32,0.91,0.1,0.91-0.49C266.01,55.07,265.62,54.37,265.12,54.05"/>
		<path id="XMLID_179_" class="st2" d="M259.39,26.81c-0.34-0.18-0.6-0.14-0.61,0.1c0,0.25,0.25,0.58,0.59,0.77
			c0.34,0.18,0.61,0.13,0.62-0.11C259.98,27.33,259.72,27,259.39,26.81"/>
		<path id="XMLID_178_" class="st2" d="M264.85,65.98c-0.4-0.26-0.72-0.05-0.74,0.49c0,0.54,0.31,1.17,0.71,1.45
			c0.41,0.26,0.73,0.05,0.74-0.5C265.57,66.88,265.26,66.26,264.85,65.98"/>
		<path id="XMLID_177_" class="st2" d="M267.47,35.4c-0.42-0.24-0.73-0.16-0.72,0.21c0.03,0.37,0.37,0.85,0.79,1.11
			c0.43,0.25,0.74,0.16,0.72-0.22C268.23,36.12,267.89,35.65,267.47,35.4"/>
		<path id="XMLID_176_" class="st2" d="M261.99,22.93c-0.39-0.21-0.68-0.18-0.68,0.07c0.01,0.26,0.32,0.63,0.71,0.84
			c0.39,0.21,0.68,0.18,0.68-0.09C262.67,23.51,262.37,23.15,261.99,22.93"/>
		<path id="XMLID_175_" class="st2" d="M277.26,37.33c-0.31-0.2-0.51-0.14-0.47,0.15c0.05,0.29,0.32,0.67,0.63,0.89
			c0.31,0.2,0.51,0.14,0.46-0.16C277.83,37.92,277.56,37.54,277.26,37.33"/>
		<path id="XMLID_174_" class="st2" d="M270.7,44.86c-0.44-0.28-0.76-0.15-0.74,0.31c0.03,0.46,0.4,1.05,0.85,1.35
			c0.45,0.29,0.76,0.15,0.74-0.32C271.51,45.74,271.15,45.15,270.7,44.86"/>
		<path id="XMLID_173_" class="st2" d="M269.34,73.27c-0.37-0.31-0.64-0.09-0.64,0.5c0.02,0.6,0.32,1.32,0.69,1.66
			c0.37,0.32,0.64,0.1,0.63-0.51C269.99,74.31,269.7,73.59,269.34,73.27"/>
		<path id="XMLID_172_" class="st2" d="M261.63,59.77c-0.45-0.26-0.8-0.05-0.83,0.48c-0.01,0.54,0.32,1.17,0.77,1.44
			c0.45,0.26,0.8,0.05,0.82-0.5C262.39,60.66,262.07,60.04,261.63,59.77"/>
		<path id="XMLID_171_" class="st2" d="M267.76,40.49c-0.32-0.19-0.55-0.1-0.54,0.19c0.02,0.3,0.27,0.69,0.59,0.89
			c0.32,0.19,0.55,0.1,0.54-0.2C268.33,41.07,268.07,40.69,267.76,40.49"/>
		<path id="XMLID_170_" class="st2" d="M261.84,21.36c-0.33-0.18-0.57-0.18-0.57,0.05c0.01,0.23,0.27,0.51,0.6,0.7
			c0.33,0.18,0.58,0.18,0.58-0.06C262.43,21.83,262.17,21.55,261.84,21.36"/>
		<path id="XMLID_169_" class="st2" d="M264.19,22.77c-0.27-0.15-0.47-0.15-0.46,0.05c0.02,0.2,0.23,0.43,0.5,0.59
			c0.27,0.15,0.47,0.15,0.46-0.05C264.67,23.15,264.46,22.92,264.19,22.77"/>
		<path id="XMLID_168_" class="st2" d="M258.34,54.1c-0.4-0.22-0.73-0.05-0.76,0.39c-0.02,0.44,0.27,0.95,0.67,1.19
			c0.41,0.22,0.73,0.04,0.76-0.4C259.03,54.83,258.74,54.32,258.34,54.1"/>
		<path id="XMLID_167_" class="st2" d="M255.05,48.6c-0.39-0.2-0.72-0.05-0.77,0.35c-0.03,0.4,0.25,0.87,0.64,1.09
			c0.4,0.2,0.73,0.05,0.77-0.35C255.72,49.28,255.44,48.81,255.05,48.6"/>
		<path id="XMLID_166_" class="st2" d="M252,43.5c-0.39-0.19-0.72-0.07-0.78,0.3c-0.03,0.37,0.23,0.81,0.63,1.02
			c0.39,0.19,0.73,0.06,0.77-0.31C252.65,44.14,252.39,43.7,252,43.5"/>
		<path id="XMLID_165_" class="st2" d="M264.04,21.28c-0.29-0.16-0.5-0.17-0.49,0.04c0.02,0.2,0.25,0.45,0.54,0.61
			c0.29,0.16,0.5,0.17,0.49-0.04C264.56,21.68,264.33,21.44,264.04,21.28"/>
		<path id="XMLID_164_" class="st2" d="M265.89,21.32c-0.25-0.14-0.43-0.14-0.42,0.03c0.02,0.18,0.21,0.39,0.46,0.53
			c0.25,0.14,0.43,0.14,0.42-0.03C266.34,21.68,266.14,21.47,265.89,21.32"/>
		<path id="XMLID_163_" class="st2" d="M273.5,47c-0.28-0.19-0.48-0.1-0.46,0.21c0.03,0.31,0.26,0.71,0.55,0.91
			c0.28,0.19,0.48,0.1,0.46-0.22C274.01,47.59,273.78,47.2,273.5,47"/>
		<path id="XMLID_162_" class="st2" d="M270.92,47.71c-0.35-0.23-0.61-0.11-0.6,0.27c0.03,0.39,0.32,0.88,0.68,1.13
			c0.36,0.24,0.61,0.12,0.59-0.28C271.56,48.44,271.27,47.95,270.92,47.71"/>
		<path id="XMLID_161_" class="st2" d="M268.03,45.91c-0.33-0.2-0.57-0.1-0.57,0.24c0.02,0.35,0.28,0.78,0.61,0.99
			c0.34,0.21,0.58,0.1,0.56-0.25C268.62,46.55,268.35,46.12,268.03,45.91"/>
		<path id="XMLID_160_" class="st2" d="M265.07,44.16c-0.31-0.18-0.54-0.09-0.54,0.22c0,0.31,0.25,0.69,0.55,0.88
			c0.31,0.18,0.54,0.08,0.54-0.22C265.61,44.73,265.37,44.35,265.07,44.16"/>
		<path id="XMLID_159_" class="st2" d="M262.04,42.41c-0.32-0.17-0.56-0.08-0.57,0.22c0,0.3,0.24,0.67,0.55,0.86
			c0.32,0.18,0.56,0.08,0.56-0.22C262.59,42.96,262.35,42.59,262.04,42.41"/>
		<path id="XMLID_158_" class="st2" d="M273.65,49.71c-0.29-0.2-0.48-0.1-0.46,0.23c0.03,0.33,0.27,0.75,0.55,0.95
			c0.28,0.2,0.48,0.1,0.46-0.23C274.17,50.32,273.93,49.91,273.65,49.71"/>
		<path id="XMLID_157_" class="st2" d="M276.51,51.86c-0.25-0.19-0.42-0.1-0.4,0.21c0.03,0.31,0.25,0.71,0.5,0.91
			c0.25,0.19,0.42,0.1,0.4-0.21C276.97,52.45,276.76,52.06,276.51,51.86"/>
		<path id="XMLID_156_" class="st2" d="M261.94,24.61c-0.31-0.17-0.55-0.16-0.56,0.07c0.01,0.24,0.26,0.53,0.58,0.7
			c0.32,0.18,0.56,0.16,0.55-0.08C262.51,25.07,262.26,24.78,261.94,24.61"/>
		<path id="XMLID_155_" class="st2" d="M243.01,32.2c-0.75-0.35-1.43-0.18-1.58,0.4c-0.14,0.6,0.34,1.35,1.1,1.71
			c0.76,0.35,1.44,0.16,1.58-0.43C244.21,33.28,243.74,32.56,243.01,32.2"/>
		<path id="XMLID_154_" class="st2" d="M239.78,30.38c-0.94-0.43-1.83-0.23-2.06,0.49c-0.2,0.74,0.38,1.66,1.34,2.12
			c0.97,0.44,1.86,0.2,2.06-0.53C241.29,31.72,240.71,30.83,239.78,30.38"/>
		<path id="XMLID_153_" class="st2" d="M218.16,7.54c0.5,0.18,0.75,0.49,0.58,0.73c-0.19,0.24-0.73,0.29-1.25,0.13
			c-0.52-0.18-0.77-0.48-0.59-0.73C217.1,7.44,217.65,7.38,218.16,7.54"/>
		<path id="XMLID_152_" class="st2" d="M221.72,8.65c0.6,0.23,0.91,0.63,0.72,0.94c-0.21,0.3-0.85,0.34-1.47,0.13
			c-0.62-0.24-0.93-0.63-0.72-0.94C220.47,8.48,221.11,8.43,221.72,8.65"/>
		<path id="XMLID_151_" class="st2" d="M220.37,36.88c0.57,0.23,0.85,0.75,0.64,1.22c-0.22,0.46-0.84,0.67-1.43,0.45
			c-0.58-0.23-0.86-0.77-0.64-1.23C219.18,36.85,219.8,36.67,220.37,36.88"/>
		<path id="XMLID_150_" class="st2" d="M225.48,34.32c0.77,0.32,1.17,1.03,0.94,1.67c-0.27,0.63-1.07,0.87-1.88,0.56
			c-0.79-0.33-1.19-1.07-0.93-1.7C223.89,34.24,224.7,34.01,225.48,34.32"/>
		<path id="XMLID_149_" class="st2" d="M230.61,32.84c0.81,0.36,1.26,1.12,1.04,1.77c-0.24,0.65-1.06,0.88-1.9,0.54
			c-0.83-0.37-1.28-1.15-1.04-1.8C228.97,32.71,229.79,32.5,230.61,32.84"/>
		<path id="XMLID_148_" class="st2" d="M240.19,16.47c0.68,0.34,1.12,0.92,1.01,1.34c-0.13,0.42-0.77,0.48-1.48,0.14
			c-0.71-0.35-1.15-0.94-1.01-1.36C238.86,16.19,239.5,16.14,240.19,16.47"/>
		<path id="XMLID_147_" class="st2" d="M223.96,11.56c0.64,0.25,0.99,0.7,0.79,1.04c-0.21,0.34-0.87,0.42-1.53,0.18
			c-0.66-0.26-1-0.7-0.8-1.05C222.65,11.39,223.32,11.32,223.96,11.56"/>
		<path id="XMLID_146_" class="st2" d="M227.26,12.82c0.66,0.27,1.02,0.75,0.84,1.12c-0.2,0.36-0.86,0.43-1.54,0.17
			c-0.67-0.28-1.03-0.76-0.84-1.13C225.93,12.62,226.6,12.56,227.26,12.82"/>
		<path id="XMLID_145_" class="st2" d="M232.75,17.26c0.71,0.33,1.13,0.91,0.97,1.35c-0.19,0.43-0.89,0.52-1.63,0.21
			c-0.74-0.34-1.15-0.92-0.97-1.36C231.32,17.03,232.03,16.94,232.75,17.26"/>
		<path id="XMLID_144_" class="st2" d="M230.46,14.06c0.7,0.31,1.1,0.85,0.93,1.26c-0.2,0.4-0.89,0.47-1.62,0.17
			c-0.72-0.32-1.13-0.87-0.93-1.27C229.04,13.83,229.75,13.76,230.46,14.06"/>
		<path id="XMLID_143_" class="st2" d="M233.64,15.43c0.74,0.35,1.17,0.94,1.01,1.38c-0.18,0.44-0.91,0.52-1.68,0.18
			c-0.76-0.35-1.2-0.95-1.01-1.4C232.16,15.17,232.89,15.1,233.64,15.43"/>
		<path id="XMLID_142_" class="st2" d="M235.9,18.61c0.77,0.37,1.24,1.01,1.08,1.5c-0.19,0.49-0.93,0.59-1.73,0.23
			c-0.79-0.37-1.26-1.03-1.08-1.52C234.37,18.35,235.12,18.26,235.9,18.61"/>
		<path id="XMLID_141_" class="st2" d="M235.36,31.54c0.8,0.37,1.27,1.12,1.09,1.76c-0.21,0.64-0.99,0.85-1.82,0.49
			c-0.82-0.38-1.29-1.15-1.09-1.79C233.77,31.39,234.55,31.19,235.36,31.54"/>
		<path id="XMLID_140_" class="st2" d="M236.18,28.89c0.86,0.4,1.37,1.2,1.19,1.85c-0.21,0.65-1.05,0.86-1.93,0.47
			c-0.89-0.41-1.4-1.23-1.19-1.89C234.48,28.69,235.31,28.5,236.18,28.89"/>
		<path id="XMLID_139_" class="st2" d="M236.92,26.39c0.92,0.44,1.48,1.28,1.29,1.96c-0.22,0.68-1.11,0.87-2.07,0.45
			c-0.95-0.45-1.51-1.31-1.3-1.99C235.09,26.15,235.98,25.97,236.92,26.39"/>
		<path id="XMLID_138_" class="st2" d="M237.66,24.06c0.89,0.43,1.44,1.23,1.27,1.85c-0.2,0.63-1.06,0.8-1.99,0.38
			c-0.92-0.44-1.47-1.26-1.27-1.89C235.9,23.8,236.76,23.65,237.66,24.06"/>
		<path id="XMLID_137_" class="st2" d="M238.3,22.04c0.78,0.38,1.27,1.07,1.12,1.59c-0.17,0.53-0.91,0.66-1.72,0.28
			c-0.81-0.38-1.29-1.08-1.12-1.62C236.77,21.78,237.51,21.67,238.3,22.04"/>
		<path id="XMLID_136_" class="st2" d="M239.03,19.99c0.84,0.42,1.37,1.14,1.22,1.69c-0.18,0.55-0.97,0.66-1.84,0.26
			c-0.87-0.42-1.4-1.16-1.22-1.72C237.39,19.69,238.18,19.6,239.03,19.99"/>
		<path id="XMLID_135_" class="st2" d="M239.66,18.13c0.82,0.41,1.33,1.1,1.19,1.62c-0.17,0.51-0.93,0.6-1.78,0.21
			c-0.85-0.41-1.36-1.12-1.2-1.64C238.07,17.81,238.84,17.74,239.66,18.13"/>
		<path id="XMLID_122_" class="st2" d="M246.2,17.7c0.54,0.29,0.91,0.76,0.85,1.09c-0.08,0.34-0.56,0.38-1.11,0.1
			c-0.56-0.29-0.93-0.77-0.86-1.1C245.17,17.46,245.65,17.43,246.2,17.7"/>
		<path id="XMLID_121_" class="st2" d="M246.63,16.2c0.5,0.26,0.84,0.69,0.78,0.99c-0.07,0.29-0.5,0.32-1.01,0.06
			c-0.51-0.26-0.85-0.7-0.79-0.99C245.7,15.97,246.13,15.95,246.63,16.2"/>
		<path id="XMLID_120_" class="st2" d="M247.06,14.8c0.43,0.23,0.72,0.59,0.68,0.84c-0.06,0.24-0.43,0.26-0.87,0.03
			c-0.44-0.23-0.73-0.6-0.68-0.85C246.25,14.59,246.63,14.58,247.06,14.8"/>
		<path id="XMLID_119_" class="st2" d="M247.45,13.46c0.39,0.21,0.66,0.5,0.62,0.75c-0.06,0.24-0.39,0.22-0.79,0.02
			c-0.39-0.21-0.67-0.51-0.62-0.76C246.73,13.22,247.06,13.25,247.45,13.46"/>
		<path id="XMLID_118_" class="st2" d="M247.82,12.24c0.36,0.19,0.62,0.46,0.58,0.69c-0.05,0.22-0.36,0.19-0.72-0.01
			c-0.37-0.19-0.62-0.47-0.58-0.69C247.15,12.01,247.46,12.05,247.82,12.24"/>
		<path id="XMLID_117_" class="st2" d="M248.16,11.08c0.32,0.18,0.54,0.41,0.51,0.6c-0.05,0.19-0.31,0.16-0.64-0.02
			c-0.32-0.18-0.55-0.41-0.51-0.6C247.57,10.87,247.84,10.91,248.16,11.08"/>
		<path id="XMLID_116_" class="st2" d="M248.46,10.09c0.29,0.16,0.5,0.38,0.47,0.55c-0.04,0.17-0.28,0.13-0.59-0.03
			c-0.3-0.17-0.51-0.38-0.48-0.55C247.91,9.89,248.16,9.93,248.46,10.09"/>
		<path id="XMLID_115_" class="st2" d="M248.76,9.1c0.26,0.14,0.45,0.33,0.42,0.48c-0.03,0.14-0.25,0.11-0.51-0.04
			c-0.26-0.15-0.45-0.33-0.42-0.48C248.28,8.92,248.49,8.96,248.76,9.1"/>
		<path id="XMLID_114_" class="st2" d="M241.92,36.78c-0.58-0.29-0.94-0.87-0.83-1.35c0.13-0.47,0.66-0.62,1.23-0.35
			c0.57,0.28,0.93,0.86,0.84,1.33C243.04,36.89,242.51,37.04,241.92,36.78"/>
		<path id="XMLID_113_" class="st2" d="M241.29,39.85c-0.56-0.27-0.9-0.84-0.79-1.32c0.13-0.47,0.64-0.63,1.19-0.38
			c0.55,0.26,0.89,0.83,0.79,1.31C242.36,39.93,241.85,40.11,241.29,39.85"/>
		<path id="XMLID_112_" class="st2" d="M240.7,43.11c-0.55-0.26-0.88-0.84-0.77-1.34c0.13-0.49,0.64-0.67,1.19-0.42
			c0.54,0.26,0.87,0.83,0.77,1.32C241.77,43.17,241.25,43.36,240.7,43.11"/>
		<path id="XMLID_111_" class="st2" d="M240.15,46.65c-0.52-0.24-0.82-0.8-0.71-1.29c0.13-0.48,0.61-0.67,1.13-0.44
			c0.5,0.24,0.81,0.79,0.71,1.27C241.16,46.68,240.68,46.88,240.15,46.65"/>
		<path id="XMLID_109_" class="st2" d="M239.44,50.49c-0.48-0.22-0.76-0.76-0.65-1.24c0.13-0.47,0.59-0.67,1.06-0.46
			c0.48,0.22,0.76,0.75,0.66,1.23C240.39,50.48,239.93,50.69,239.44,50.49"/>
		<path id="XMLID_108_" class="st2" d="M238.7,54.86c-0.46-0.2-0.71-0.72-0.59-1.2c0.12-0.47,0.56-0.67,1.01-0.48
			c0.45,0.2,0.7,0.71,0.59,1.18C239.59,54.83,239.15,55.05,238.7,54.86"/>
		<path id="XMLID_107_" class="st2" d="M236.69,16.86c0.71,0.34,1.15,0.93,1.01,1.37c-0.16,0.43-0.84,0.51-1.58,0.18
			c-0.74-0.35-1.17-0.95-1.01-1.39C235.29,16.59,235.97,16.53,236.69,16.86"/>
		<path id="XMLID_106_" class="st2" d="M235.08,20.7c0.65,0.3,1.03,0.85,0.89,1.27c-0.16,0.42-0.78,0.52-1.45,0.23
			c-0.66-0.31-1.05-0.87-0.9-1.29C233.8,20.5,234.42,20.41,235.08,20.7"/>
		<path id="XMLID_105_" class="st2" d="M234.34,22.73c0.74,0.35,1.17,0.99,1.01,1.49c-0.19,0.5-0.91,0.63-1.67,0.3
			c-0.76-0.35-1.2-1-1.01-1.51C232.87,22.52,233.59,22.41,234.34,22.73"/>
		<path id="XMLID_104_" class="st2" d="M231.61,30.02c0.73,0.33,1.15,1,0.96,1.56c-0.21,0.56-0.95,0.74-1.7,0.43
			c-0.75-0.34-1.16-1.02-0.96-1.59C230.13,29.88,230.87,29.71,231.61,30.02"/>
		<path id="XMLID_103_" class="st2" d="M225.03,9.81c0.69,0.29,1.05,0.77,0.84,1.12c-0.22,0.35-0.93,0.4-1.64,0.13
			c-0.71-0.29-1.07-0.77-0.85-1.13C223.63,9.58,224.34,9.53,225.03,9.81"/>
		<path id="XMLID_102_" class="st2" d="M224.12,37.76c0.72,0.3,1.09,0.99,0.85,1.61c-0.26,0.62-1.03,0.87-1.77,0.58
			c-0.74-0.31-1.1-1.01-0.85-1.63C222.64,37.71,223.4,37.48,224.12,37.76"/>
		<path id="XMLID_101_" class="st2" d="M219.01,39.81c0.73,0.29,1.07,0.98,0.8,1.61c-0.3,0.63-1.1,0.91-1.85,0.63
			c-0.75-0.29-1.09-1-0.79-1.63C217.47,39.8,218.27,39.54,219.01,39.81"/>
		<path id="XMLID_100_" class="st2" d="M229.43,36.02c0.75,0.33,1.16,1.06,0.95,1.7c-0.24,0.63-1.01,0.88-1.79,0.56
			c-0.78-0.34-1.19-1.09-0.95-1.73C227.9,35.93,228.67,35.71,229.43,36.02"/>
		<path id="XMLID_99_" class="st2" d="M234.37,34.61c0.71,0.33,1.13,1.02,0.96,1.61c-0.19,0.59-0.9,0.81-1.63,0.49
			c-0.74-0.33-1.15-1.04-0.96-1.64C232.94,34.5,233.64,34.3,234.37,34.61"/>
		<path id="XMLID_98_" class="st2" d="M238.92,33.23c0.75,0.36,1.21,1.09,1.07,1.71c-0.18,0.62-0.89,0.83-1.67,0.48
			c-0.78-0.37-1.23-1.12-1.06-1.74C237.44,33.08,238.16,32.89,238.92,33.23"/>
		<path id="XMLID_97_" class="st2" d="M232.54,27.45c0.68,0.31,1.07,0.92,0.91,1.43c-0.19,0.5-0.87,0.65-1.57,0.36
			c-0.7-0.32-1.09-0.94-0.91-1.44C231.18,27.3,231.85,27.16,232.54,27.45"/>
		<path id="XMLID_96_" class="st2" d="M240.7,14.88c0.6,0.3,0.99,0.8,0.89,1.15c-0.12,0.35-0.67,0.39-1.29,0.09
			c-0.62-0.31-1-0.82-0.9-1.17C239.54,14.61,240.09,14.58,240.7,14.88"/>
		<path id="XMLID_95_" class="st2" d="M228.24,11.29c0.54,0.24,0.83,0.64,0.69,0.93c-0.17,0.28-0.71,0.32-1.27,0.09
			c-0.55-0.24-0.85-0.64-0.69-0.94C227.15,11.09,227.69,11.06,228.24,11.29"/>
		<path id="XMLID_94_" class="st2" d="M230.96,21.45c0.59,0.26,0.92,0.75,0.77,1.14c-0.17,0.38-0.75,0.49-1.35,0.23
			c-0.6-0.26-0.94-0.76-0.78-1.15C229.78,21.3,230.37,21.2,230.96,21.45"/>
		<path id="XMLID_93_" class="st2" d="M226.71,31.28c0.74,0.32,1.14,0.99,0.92,1.57c-0.24,0.58-1.01,0.79-1.78,0.48
			c-0.77-0.33-1.17-1.01-0.92-1.59C225.19,31.18,225.96,30.98,226.71,31.28"/>
		<path id="XMLID_92_" class="st2" d="M233.4,25.17c0.66,0.3,1.05,0.88,0.89,1.35c-0.18,0.46-0.83,0.6-1.51,0.3
			c-0.68-0.31-1.06-0.9-0.9-1.37C232.08,25.01,232.73,24.88,233.4,25.17"/>
		<path id="XMLID_91_" class="st2" d="M226.47,22.16c0.69,0.29,1.07,0.85,0.87,1.31c-0.22,0.45-0.93,0.59-1.65,0.31
			c-0.71-0.3-1.08-0.87-0.87-1.32C225.06,22.01,225.77,21.89,226.47,22.16"/>
		<path id="XMLID_90_" class="st2" d="M214.56,42c0.52,0.19,0.74,0.67,0.51,1.13c-0.24,0.46-0.83,0.67-1.35,0.49
			c-0.53-0.19-0.75-0.69-0.51-1.15C213.46,42.03,214.04,41.83,214.56,42"/>
		<path id="XMLID_89_" class="st2" d="M229.47,15.94c0.63,0.28,0.98,0.76,0.82,1.14c-0.18,0.37-0.81,0.45-1.46,0.18
			c-0.64-0.28-1-0.77-0.82-1.15C228.21,15.75,228.84,15.68,229.47,15.94"/>
		<path id="XMLID_88_" class="st2" d="M243.5,16.34c0.54,0.28,0.89,0.73,0.82,1.05c-0.09,0.32-0.57,0.36-1.12,0.09
			c-0.54-0.28-0.9-0.74-0.81-1.06C242.48,16.11,242.96,16.08,243.5,16.34"/>
		<path id="XMLID_87_" class="st2" d="M235.65,11.01c0.41,0.16,0.68,0.45,0.63,0.67c-0.06,0.22-0.43,0.27-0.84,0.11
			c-0.42-0.16-0.69-0.46-0.63-0.68C234.87,10.9,235.24,10.85,235.65,11.01"/>
		<path id="XMLID_86_" class="st2" d="M231.23,12.54c0.48,0.22,0.75,0.58,0.64,0.85c-0.13,0.26-0.6,0.3-1.1,0.09
			c-0.49-0.22-0.76-0.59-0.64-0.85C230.27,12.37,230.75,12.33,231.23,12.54"/>
		<path id="XMLID_85_" class="st2" d="M229.93,23.77c0.61,0.26,0.95,0.78,0.78,1.2c-0.18,0.41-0.78,0.53-1.41,0.28
			c-0.62-0.27-0.97-0.8-0.79-1.22C228.7,23.63,229.31,23.51,229.93,23.77"/>
		<path id="XMLID_84_" class="st2" d="M227.54,20.12c0.54,0.23,0.84,0.67,0.69,1.01c-0.17,0.34-0.71,0.43-1.27,0.22
			c-0.55-0.23-0.85-0.67-0.69-1.02C226.44,19.99,226.99,19.9,227.54,20.12"/>
		<path id="XMLID_83_" class="st2" d="M222.83,20.9c0.64,0.25,0.97,0.75,0.77,1.15c-0.22,0.4-0.89,0.53-1.55,0.29
			c-0.65-0.25-0.99-0.75-0.78-1.16C221.51,20.78,222.18,20.66,222.83,20.9"/>
		<path id="XMLID_82_" class="st2" d="M220.62,10.51c0.51,0.18,0.77,0.52,0.61,0.78c-0.18,0.26-0.71,0.32-1.23,0.15
			c-0.52-0.19-0.79-0.52-0.61-0.79C219.57,10.41,220.1,10.35,220.62,10.51"/>
		<path id="XMLID_81_" class="st2" d="M236.35,9.6c0.44,0.18,0.73,0.49,0.68,0.71c-0.06,0.23-0.46,0.27-0.91,0.1
			c-0.45-0.18-0.75-0.49-0.68-0.72C235.5,9.47,235.9,9.43,236.35,9.6"/>
		<path id="XMLID_80_" class="st2" d="M237.91,13.59c0.54,0.27,0.88,0.7,0.78,1.01c-0.12,0.3-0.63,0.34-1.18,0.08
			c-0.55-0.27-0.89-0.71-0.78-1.02C236.85,13.35,237.36,13.33,237.91,13.59"/>
		<path id="XMLID_79_" class="st2" d="M238.54,12.07c0.48,0.25,0.78,0.63,0.71,0.9c-0.09,0.27-0.52,0.29-1.01,0.05
			c-0.48-0.24-0.79-0.64-0.71-0.91C237.63,11.86,238.06,11.84,238.54,12.07"/>
		<path id="XMLID_78_" class="st2" d="M231.79,19.49c0.51,0.23,0.81,0.65,0.69,0.98c-0.14,0.33-0.65,0.4-1.18,0.18
			c-0.52-0.24-0.82-0.66-0.68-0.99C230.76,19.34,231.27,19.27,231.79,19.49"/>
		<path id="XMLID_77_" class="st2" d="M234.31,13.99c0.43,0.2,0.67,0.53,0.58,0.77c-0.1,0.24-0.51,0.27-0.95,0.08
			c-0.43-0.2-0.68-0.54-0.59-0.78C233.48,13.83,233.89,13.8,234.31,13.99"/>
		<path id="XMLID_76_" class="st2" d="M227.82,28.73c0.53,0.22,0.81,0.69,0.66,1.08c-0.17,0.38-0.71,0.51-1.24,0.3
			c-0.54-0.23-0.82-0.7-0.66-1.09C226.76,28.64,227.29,28.52,227.82,28.73"/>
		<path id="XMLID_75_" class="st2" d="M237.19,15.4c0.37,0.18,0.6,0.49,0.53,0.71c-0.08,0.22-0.44,0.25-0.82,0.07
			c-0.38-0.18-0.61-0.5-0.53-0.71C236.46,15.25,236.81,15.22,237.19,15.4"/>
		<path id="XMLID_74_" class="st2" d="M241.12,13.46c0.42,0.22,0.7,0.57,0.64,0.82c-0.06,0.24-0.44,0.26-0.88,0.05
			c-0.43-0.22-0.71-0.58-0.65-0.83C240.31,13.26,240.69,13.24,241.12,13.46"/>
		<path id="XMLID_73_" class="st2" d="M226.11,14.7c0.53,0.22,0.81,0.61,0.66,0.91c-0.17,0.3-0.7,0.36-1.24,0.16
			c-0.54-0.22-0.83-0.61-0.67-0.91C225.04,14.56,225.58,14.5,226.11,14.7"/>
		<path id="XMLID_72_" class="st2" d="M214.63,6.39c0.43,0.14,0.62,0.38,0.46,0.58c-0.17,0.19-0.64,0.24-1.07,0.11
			c-0.43-0.14-0.64-0.38-0.46-0.58C213.73,6.31,214.2,6.26,214.63,6.39"/>
		<path id="XMLID_71_" class="st2" d="M219.1,19.61c0.6,0.22,0.89,0.65,0.7,1.01c-0.22,0.36-0.86,0.48-1.47,0.28
			c-0.61-0.21-0.91-0.65-0.7-1.02C217.85,19.53,218.49,19.41,219.1,19.61"/>
		<path id="XMLID_70_" class="st2" d="M213.28,45.35c0.48,0.18,0.67,0.64,0.44,1.09c-0.24,0.44-0.79,0.65-1.28,0.48
			c-0.48-0.18-0.67-0.66-0.44-1.11C212.25,45.38,212.81,45.18,213.28,45.35"/>
		<path id="XMLID_69_" class="st2" d="M209.53,47.29c0.42,0.15,0.58,0.54,0.38,0.93c-0.22,0.38-0.71,0.57-1.15,0.43
			c-0.43-0.15-0.59-0.55-0.38-0.94C208.61,47.34,209.1,47.16,209.53,47.29"/>
		<path id="XMLID_68_" class="st2" d="M222.8,41.08c0.54,0.23,0.81,0.76,0.62,1.25c-0.21,0.49-0.79,0.7-1.35,0.48
			c-0.55-0.23-0.82-0.78-0.62-1.27C221.66,41.07,222.25,40.87,222.8,41.08"/>
		<path id="XMLID_67_" class="st2" d="M217.67,43.27c0.54,0.23,0.81,0.76,0.62,1.25c-0.21,0.48-0.79,0.7-1.35,0.48
			c-0.55-0.23-0.82-0.78-0.62-1.27C216.54,43.26,217.12,43.06,217.67,43.27"/>
		<path id="XMLID_66_" class="st2" d="M223.98,18.88c0.4,0.16,0.62,0.47,0.49,0.71c-0.14,0.25-0.55,0.32-0.96,0.16
			c-0.41-0.16-0.63-0.47-0.5-0.72C223.14,18.79,223.57,18.73,223.98,18.88"/>
		<path id="XMLID_65_" class="st2" d="M234.52,7.51c0.34,0.14,0.57,0.36,0.52,0.55c-0.07,0.18-0.38,0.19-0.72,0.05
			c-0.35-0.14-0.58-0.37-0.52-0.55C233.87,7.38,234.17,7.38,234.52,7.51"/>
		<path id="XMLID_64_" class="st2" d="M228.21,39.39c0.46,0.2,0.7,0.66,0.57,1.07c-0.16,0.4-0.63,0.57-1.1,0.38
			c-0.47-0.2-0.71-0.67-0.56-1.08C227.26,39.36,227.74,39.2,228.21,39.39"/>
		<path id="XMLID_63_" class="st2" d="M233.26,37.68c0.44,0.2,0.68,0.63,0.57,1.01c-0.13,0.37-0.56,0.52-1.01,0.33
			c-0.44-0.2-0.69-0.64-0.57-1.02C232.39,37.62,232.82,37.49,233.26,37.68"/>
		<path id="XMLID_62_" class="st2" d="M237.94,36.63c0.41,0.19,0.66,0.61,0.57,0.96c-0.1,0.34-0.5,0.47-0.92,0.29
			c-0.42-0.19-0.67-0.62-0.57-0.97C237.13,36.57,237.53,36.45,237.94,36.63"/>
		<path id="XMLID_61_" class="st2" d="M215.07,18.57c0.4,0.13,0.6,0.4,0.45,0.63c-0.16,0.23-0.59,0.31-1,0.19
			c-0.41-0.13-0.6-0.4-0.45-0.64C214.23,18.53,214.66,18.45,215.07,18.57"/>
		<path id="XMLID_60_" class="st2" d="M217.72,21.49c0.49,0.17,0.72,0.53,0.55,0.83c-0.18,0.3-0.7,0.41-1.2,0.25
			c-0.49-0.17-0.73-0.53-0.55-0.84C216.71,21.44,217.23,21.33,217.72,21.49"/>
		<path id="XMLID_59_" class="st2" d="M221.54,23.19c0.42,0.16,0.64,0.5,0.5,0.79c-0.15,0.27-0.6,0.37-1.04,0.21
			c-0.44-0.17-0.66-0.5-0.51-0.79C220.65,23.12,221.1,23.03,221.54,23.19"/>
		<path id="XMLID_58_" class="st2" d="M225.29,24.69c0.38,0.16,0.58,0.47,0.46,0.73c-0.12,0.26-0.51,0.34-0.9,0.19
			c-0.39-0.16-0.59-0.47-0.47-0.73C224.52,24.62,224.91,24.54,225.29,24.69"/>
		<path id="XMLID_57_" class="st2" d="M228.88,26.2c0.37,0.16,0.57,0.48,0.47,0.74c-0.11,0.26-0.48,0.34-0.86,0.19
			c-0.37-0.16-0.58-0.49-0.47-0.75C228.13,26.13,228.51,26.05,228.88,26.2"/>
		<path id="XMLID_56_" class="st2" d="M236.98,8.46c0.34,0.14,0.57,0.35,0.52,0.53c-0.06,0.18-0.34,0.19-0.68,0.06
			c-0.34-0.14-0.57-0.35-0.52-0.54C236.35,8.33,236.64,8.33,236.98,8.46"/>
		<path id="XMLID_55_" class="st2" d="M235.21,6.41c0.3,0.12,0.5,0.32,0.46,0.49c-0.05,0.17-0.31,0.17-0.61,0.04
			c-0.3-0.13-0.5-0.32-0.46-0.49C234.65,6.29,234.91,6.28,235.21,6.41"/>
		<path id="XMLID_54_" class="st2" d="M233.35,4.63c0.27,0.11,0.46,0.28,0.42,0.43c-0.04,0.15-0.28,0.16-0.55,0.05
			c-0.27-0.11-0.46-0.28-0.42-0.43C232.84,4.52,233.07,4.52,233.35,4.63"/>
		<path id="XMLID_53_" class="st2" d="M239.02,10.86c0.35,0.18,0.58,0.45,0.53,0.66c-0.07,0.21-0.38,0.2-0.75,0.02
			c-0.36-0.18-0.59-0.45-0.53-0.67C238.35,10.67,238.66,10.68,239.02,10.86"/>
		<path id="XMLID_52_" class="st2" d="M213.76,20.35c0.42,0.13,0.61,0.41,0.46,0.67c-0.17,0.24-0.61,0.34-1.03,0.22
			c-0.42-0.13-0.62-0.42-0.46-0.67C212.89,20.32,213.34,20.23,213.76,20.35"/>
		<path id="XMLID_51_" class="st2" d="M210.05,19.34c0.39,0.1,0.57,0.35,0.42,0.58c-0.17,0.22-0.6,0.31-0.99,0.22
			c-0.4-0.11-0.58-0.35-0.42-0.58C209.22,19.34,209.65,19.24,210.05,19.34"/>
		<path class="st2" d="M241.49,17.97c-0.11,0.42,0.26,1,0.9,1.42c-0.75-0.25-1.38-0.13-1.53,0.36c-0.11,0.43,0.17,0.97,0.71,1.43
			c-0.64-0.12-1.14,0.05-1.28,0.49c-0.14,0.53,0.27,1.2,0.99,1.7c-0.79-0.24-1.46-0.07-1.63,0.48c-0.13,0.46,0.13,1.03,0.65,1.51
			c-0.64-0.07-1.13,0.14-1.28,0.63c-0.15,0.54,0.18,1.19,0.79,1.71c-0.73-0.12-1.32,0.11-1.5,0.68c-0.2,0.76,0.42,1.72,1.45,2.23
			c0.84,0.38,1.62,0.3,2-0.14c0.1,0.67,0.67,1.39,1.5,1.8c0.71,0.34,1.35,0.32,1.76,0.02c0.22,0.6,0.74,1.19,1.43,1.53
			c0.7,0.34,1.32,0.32,1.71,0.01c0.23,0.61,0.75,1.2,1.44,1.55c0.71,0.35,1.33,0.32,1.68-0.02c0.23,0.63,0.76,1.26,1.46,1.62
			c0.97,0.49,1.76,0.24,1.85-0.56c0.04-0.61-0.34-1.32-0.94-1.85c0.64,0.11,1.1-0.14,1.16-0.71c0.04-0.53-0.28-1.14-0.8-1.64
			c0.56,0.06,0.95-0.17,0.99-0.66c0.04-0.59-0.42-1.33-1.12-1.83c0.72,0.24,1.26,0.05,1.31-0.51c0.03-0.48-0.31-1.07-0.85-1.54
			c0.57,0.11,0.96-0.07,1.01-0.53c0.03-0.52-0.43-1.2-1.11-1.67c0.63,0.22,1.09,0.09,1.13-0.36c0.02-0.52-0.52-1.21-1.26-1.62
			c-0.65-0.34-1.19-0.32-1.38,0.01c-0.1-0.48-0.59-1.04-1.23-1.39c-0.63-0.32-1.16-0.32-1.39-0.04c-0.11-0.51-0.63-1.1-1.34-1.47
			c-0.71-0.36-1.34-0.36-1.6-0.03c-0.1-0.46-0.56-0.98-1.2-1.31c-0.78-0.39-1.46-0.36-1.59,0.12h0c0.11-0.49-0.44-1.15-1.22-1.55
			C242.36,17.44,241.65,17.49,241.49,17.97 M251.58,32.72c0.38,0.2,0.64,0.59,0.61,0.89c-0.04,0.3-0.36,0.39-0.75,0.2
			c-0.38-0.2-0.64-0.59-0.61-0.89C250.88,32.61,251.2,32.53,251.58,32.72 M248.58,31.26c0.34,0.18,0.57,0.51,0.54,0.78
			c-0.05,0.27-0.35,0.34-0.69,0.18c-0.34-0.18-0.58-0.52-0.54-0.79C247.93,31.16,248.23,31.09,248.58,31.26 M245.53,29.74
			c0.35,0.18,0.57,0.51,0.53,0.77c-0.06,0.26-0.37,0.34-0.72,0.17c-0.35-0.18-0.58-0.51-0.53-0.78
			C244.88,29.65,245.19,29.58,245.53,29.74 M242.8,28.93c-0.08,0.29-0.44,0.37-0.84,0.18c-0.4-0.2-0.66-0.57-0.58-0.87
			c0.08-0.28,0.44-0.36,0.84-0.18C242.61,28.26,242.86,28.63,242.8,28.93 M251.96,30.59c0.33,0.17,0.56,0.5,0.54,0.76
			c-0.04,0.26-0.32,0.32-0.65,0.15c-0.33-0.18-0.56-0.51-0.54-0.77C251.35,30.48,251.63,30.42,251.96,30.59 M242.74,25.97
			c0.34,0.18,0.57,0.49,0.51,0.74c-0.06,0.25-0.38,0.31-0.73,0.14c-0.35-0.18-0.57-0.5-0.51-0.74
			C242.08,25.86,242.39,25.81,242.74,25.97 M252.23,28.36c0.32,0.17,0.55,0.48,0.53,0.72c-0.03,0.24-0.3,0.3-0.63,0.14
			c-0.33-0.17-0.55-0.49-0.53-0.73C251.63,28.25,251.9,28.2,252.23,28.36 M243.27,23.84c0.34,0.17,0.55,0.47,0.5,0.71
			c-0.06,0.23-0.37,0.28-0.71,0.12c-0.34-0.17-0.55-0.48-0.5-0.71C242.62,23.73,242.93,23.68,243.27,23.84 M252.47,26.28
			c0.31,0.17,0.54,0.45,0.52,0.69c-0.03,0.24-0.29,0.27-0.61,0.11c-0.32-0.17-0.54-0.46-0.52-0.7
			C251.89,26.15,252.15,26.12,252.47,26.28 M243.76,21.85c0.32,0.17,0.54,0.45,0.49,0.67c-0.06,0.23-0.35,0.26-0.68,0.1
			c-0.33-0.17-0.55-0.45-0.5-0.68C243.14,21.72,243.43,21.69,243.76,21.85 M252.61,24.13c0.34,0.18,0.58,0.5,0.56,0.73
			c-0.03,0.23-0.31,0.28-0.65,0.1c-0.34-0.18-0.59-0.5-0.56-0.74C251.98,24,252.26,23.96,252.61,24.13 M249.92,22.78
			c0.3,0.16,0.52,0.43,0.49,0.65c-0.04,0.22-0.3,0.24-0.6,0.08c-0.31-0.16-0.52-0.43-0.49-0.65
			C249.35,22.64,249.61,22.62,249.92,22.78 M247.2,21.39c0.31,0.16,0.52,0.42,0.48,0.64c-0.05,0.21-0.31,0.23-0.62,0.08
			c-0.31-0.16-0.53-0.43-0.49-0.64C246.63,21.25,246.89,21.23,247.2,21.39 M244.25,19.84c0.35,0.18,0.58,0.49,0.54,0.71
			c-0.06,0.22-0.37,0.26-0.73,0.09c-0.35-0.18-0.59-0.49-0.53-0.72C243.58,19.7,243.9,19.67,244.25,19.84"/>
	</g>
</g>
</svg>
