<?xml version="1.0" encoding="utf-8"?>
<!-- Generator: Adobe Illustrator 27.10.0, SVG Export Plug-In . SVG Version: 6.00 Build 0)  -->
<svg version="1.1" id="Layer_1" xmlns="http://www.w3.org/2000/svg" xmlns:xlink="http://www.w3.org/1999/xlink" x="0px" y="0px"
	 viewBox="0 0 230.14 80" style="enable-background:new 0 0 230.14 80;" xml:space="preserve">
<style type="text/css">
	.st0{fill:#264285;}
	.st1{fill:#2980C3;}
	.st2{fill:#FFFFFF;}
	.st3{fill:#58595B;}
</style>
<g>
	<path class="st0" d="M224.34,9.08c2.04,0,3.7-1.64,3.7-3.7c0-2.12-1.67-3.7-3.7-3.7c-2.04,0-3.7,1.61-3.7,3.7
		C220.64,7.41,222.31,9.08,224.34,9.08 M224.34,2.37c1.64,0,2.94,1.27,2.94,2.97c0,1.67-1.3,3-2.94,3c-1.67,0-2.97-1.33-2.97-3
		S222.68,2.37,224.34,2.37"/>
	<path class="st0" d="M223.61,7.29V5.77h0.93l0.76,1.53h0.79l-0.85-1.67c0.4-0.2,0.68-0.54,0.68-1.1c0-0.79-0.57-1.19-1.22-1.19
		h-1.22c-0.4,0-0.59,0.2-0.59,0.54v3.39h0.71L223.61,7.29z M223.64,3.96h1.02c0.31,0,0.54,0.2,0.54,0.57s-0.25,0.59-0.59,0.59h-0.99
		L223.64,3.96z"/>
	<path class="st0" d="M84.78,8.99c7.78,0,8.74,8,8.74,8l9.25-2.18c-0.06-0.23-1.67-14.06-17.99-14.06
		c-10.1,0-19.54,6.17-19.54,21.92c0,15.64,9.93,21.63,20.22,21.63c7.01,0,11.93-2.35,13.66-3.31c2.23-1.3,3.48-2.57,3.48-5.26V26.1
		c0-2.52-1.67-4.04-4.38-4.04H85.54v7.13h7.95v5.54c0,0-2.8,1.89-7.72,1.89c-5.2,0-10.63-3.14-10.63-13.94
		C75.14,12.13,79.86,8.99,84.78,8.99"/>
	<path class="st0" d="M125.9,0.7c-3.87,0-6.22,1.67-7.35,5.09l-12.56,37.98h9.93c0.71,0,1.53-0.42,2.01-0.9l11.96-11.82
		c0.25-0.25,0.17-0.37-0.11-0.37h-1.61c-0.68,0-1.3,0.17-1.89,0.51l-8.03,4.61l7.64-25.79c0,0,9.08,31.22,9.81,33.74h10.21
		L133.51,5.71C132.46,2.54,129.83,0.7,125.9,0.7"/>
	<path class="st0" d="M166.96,8.88c7.78,0,8.8,8.57,8.8,8.57l9.25-1.95c0,0-1.39-14.73-18.04-14.73c-10.1,0-19.54,6-19.54,21.75
		c0,15.64,9.36,21.86,19.49,21.86c16.32,0,18.1-14.39,18.1-14.39l-9.25-2.01c0,0-0.74,8.29-8.68,8.29c-4.92,0-9.7-3.14-9.7-13.77
		C157.35,11.96,162.04,8.88,166.96,8.88"/>
	<path class="st0" d="M207.26,0.7c-3.87,0-6.22,1.67-7.38,5.09l-12.56,37.98h9.93c0.71,0,1.53-0.42,2.01-0.9l11.96-11.82
		c0.25-0.25,0.17-0.37-0.11-0.37h-1.61c-0.68,0-1.33,0.17-1.89,0.51l-8.03,4.61l7.64-25.79c0,0,9.08,31.22,9.81,33.74h10.24
		L214.87,5.71C213.82,2.54,211.22,0.7,207.26,0.7"/>
	<path class="st1" d="M62.13,43.89c0.14,0,0.25-0.14,0.25-0.31c0-0.14-0.06-0.25-0.14-0.31c-5.01-1.64-8.91-5.88-9.78-12.13
		l-2.35-16.71c-1.1-7.78-6.82-13.07-13.49-13.21H2.34c-0.14,0-0.25,0.11-0.25,0.25s0.06,0.28,0.14,0.28
		c5.01,1.64,8.91,5.91,9.78,12.19l2.35,16.71c1.1,7.75,6.82,13.07,13.49,13.24L62.13,43.89z"/>
	<path class="st2" d="M41.43,29.38h-1.56c-0.17,0-0.48,0.03-0.65,0.11L20.5,36.62c-0.14,0.06-0.14,0.11,0.03,0.11h6.11
		c0.74,0,1.22,0,1.98-0.4l12.84-6.82C41.6,29.44,41.6,29.38,41.43,29.38"/>
	<path class="st2" d="M28.65,29.38l3.73,1.47l-1.95,0.74l-4.04-2.15c-0.14-0.08-0.14-0.14,0.03-0.14h1.56
		C28.19,29.27,28.48,29.3,28.65,29.38"/>
	<path class="st2" d="M47.51,36.73H41.4c-0.74,0-1.22,0-1.98-0.4l-4.19-2.21l2.4-1.27l9.87,3.76
		C47.68,36.68,47.68,36.73,47.51,36.73"/>
	<path class="st2" d="M34.02,28.42c-0.68,0-1.33-5.37-1.47-12.27c-0.34,0.08-0.71,0.2-0.99,0.28c-1.98,0.65-4.52,1.75-6.08,2.69
		c-0.03,0.03-0.08,0.03-0.11-0.03c0-0.03-0.03-0.03-0.03-0.06c-0.08-0.74,0.03-1.44,0.59-2.01c0.57-0.57,1.3-1.05,1.98-1.5
		c0.85-0.54,1.73-1.05,2.66-1.47c0.25-0.11,0.54-0.25,0.79-0.37c-1.56-0.9-3.45-1.64-4.81-2.09c-0.03,0-0.06-0.06-0.06-0.08
		s0-0.03,0.03-0.03c0.42-0.42,0.93-0.71,1.56-0.65c0.54,0.06,1.07,0.2,1.61,0.31c0.59,0.14,1.16,0.31,1.75,0.51
		c0.34,0.11,0.65,0.23,0.99,0.34c0.06,0.03,0.11,0.03,0.17,0.06c0.2-1.87,0.76-3.22,1.44-3.22s1.24,1.36,1.44,3.22
		c0.06-0.03,0.11-0.06,0.17-0.06c0.31-0.11,0.65-0.25,0.99-0.34c0.57-0.2,1.16-0.34,1.75-0.51c0.54-0.14,1.07-0.28,1.61-0.31
		c0.62-0.06,1.13,0.23,1.56,0.65l0.03,0.03c0,0.03,0,0.08-0.06,0.08c-1.36,0.45-3.25,1.19-4.81,2.09c0.25,0.11,0.54,0.23,0.79,0.37
		c0.93,0.42,1.81,0.93,2.66,1.47c0.68,0.42,1.39,0.93,1.98,1.5c0.57,0.54,0.68,1.24,0.59,2.01c0,0.03,0,0.03-0.03,0.06
		s-0.08,0.06-0.11,0.03c-1.56-0.93-4.1-2.04-6.08-2.69c-0.25-0.08-0.62-0.2-0.99-0.28C35.35,23.05,34.7,28.42,34.02,28.42"/>
	<g>
		<path class="st3" d="M66.6,73.05c0-2.43,1.27-4.07,3.25-4.07c1.3,0,2.06,0.76,2.52,1.67l-1.07,0.48
			c-0.28-0.57-0.76-1.02-1.44-1.02c-1.13,0-1.89,1.13-1.89,2.91c0,1.78,0.76,2.91,1.89,2.91c0.59,0,1.07-0.28,1.33-0.57v-1.41h-1.67
			v-1.13h2.91v3.11c-0.62,0.74-1.47,1.22-2.57,1.22C67.9,77.15,66.6,75.48,66.6,73.05"/>
		<path class="st3" d="M73.64,74.12c0-1.64,0.93-3,2.46-3c1.56,0,2.4,1.3,2.4,3.03v0.34h-3.65c0.06,0.93,0.57,1.64,1.5,1.64
			c0.45,0,0.96-0.23,1.3-0.62l0.57,0.71c-0.48,0.57-1.22,0.88-1.98,0.88C74.66,77.12,73.64,75.9,73.64,74.12 M76.1,72.08
			c-0.9,0-1.22,0.9-1.27,1.58h2.52C77.34,72.96,77.03,72.08,76.1,72.08"/>
		<path class="st3" d="M83,76.98V73.1c0-0.68-0.31-0.9-0.82-0.9s-0.96,0.4-1.16,0.79V77h-1.19v-5.68h1.19v0.76
			c0.31-0.45,0.96-0.9,1.67-0.9c1.05,0,1.5,0.57,1.5,1.56v4.3H83L83,76.98z"/>
		<path class="st3" d="M85.54,74.12c0-1.64,0.93-3,2.46-3c1.56,0,2.4,1.3,2.4,3.03v0.34h-3.65c0.06,0.93,0.57,1.64,1.5,1.64
			c0.45,0,0.96-0.23,1.3-0.62l0.57,0.71c-0.48,0.57-1.22,0.88-1.98,0.88C86.53,77.12,85.54,75.9,85.54,74.12 M88.01,72.08
			c-0.9,0-1.22,0.9-1.27,1.58h2.52C89.25,72.96,88.91,72.08,88.01,72.08"/>
		<path class="st3" d="M91.71,76.98v-5.68h1.19v0.85c0.34-0.54,0.93-0.96,1.58-0.96v1.16c-0.08-0.03-0.2-0.03-0.31-0.03
			c-0.48,0-1.05,0.37-1.27,0.79V77L91.71,76.98z"/>
		<path class="st3" d="M98.61,76.98v-0.57c-0.34,0.48-0.93,0.71-1.53,0.71c-0.93,0-1.75-0.68-1.75-1.89s0.82-1.84,1.75-1.84
			c0.59,0,1.19,0.23,1.53,0.68v-0.82c0-0.68-0.4-1.07-1.13-1.07c-0.51,0-0.99,0.2-1.44,0.65L95.58,72c0.59-0.57,1.36-0.82,2.09-0.82
			c1.22,0,2.09,0.57,2.09,1.95v3.9h-1.16L98.61,76.98z M98.61,75.68v-0.85c-0.23-0.4-0.65-0.62-1.07-0.62
			c-0.62,0-0.99,0.45-0.99,1.05c0,0.62,0.37,1.07,0.99,1.07C97.93,76.3,98.38,76.07,98.61,75.68"/>
		<path class="st3" d="M101.41,69.11h1.19v7.86h-1.19V69.11z"/>
		<path class="st3" d="M111.22,76.98l-0.42-1.56h-2.6l-0.42,1.56h-1.44l2.38-7.86h1.58l2.38,7.86H111.22z M109.5,70.5l-1.05,3.76
			h2.06L109.5,70.5z"/>
		<path class="st3" d="M116.74,76.98v-0.76c-0.31,0.48-0.93,0.9-1.67,0.9c-1.02,0-1.5-0.54-1.5-1.53v-4.3h1.19v3.9
			c0,0.65,0.31,0.9,0.82,0.9s0.93-0.37,1.16-0.76v-4.02h1.19V77L116.74,76.98z"/>
		<path class="st3" d="M119.79,75.7v-3.39h-0.76v-1.02h0.76v-1.56h1.19v1.56h0.96v1.02h-0.96v3.14c0,0.4,0.14,0.62,0.45,0.62
			c0.2,0,0.37-0.08,0.45-0.2l0.28,0.88c-0.23,0.2-0.54,0.34-1.05,0.34C120.22,77.12,119.79,76.64,119.79,75.7"/>
		<path class="st3" d="M126.38,76.98v-3.9c0-0.65-0.31-0.9-0.85-0.9c-0.51,0-0.93,0.4-1.16,0.79v4.02h-1.19v-7.86h1.19v2.94
			c0.31-0.45,0.96-0.9,1.67-0.9c1.02,0,1.5,0.54,1.5,1.53v4.3H126.38z"/>
		<path class="st3" d="M128.9,74.12c0-1.61,0.85-3,2.49-3c1.64,0,2.49,1.39,2.49,3s-0.85,3-2.49,3
			C129.78,77.12,128.9,75.73,128.9,74.12 M132.66,74.12c0-1.02-0.4-1.95-1.27-1.95c-0.88,0-1.27,0.9-1.27,1.95
			c0,1.02,0.4,1.95,1.27,1.95C132.26,76.07,132.66,75.17,132.66,74.12"/>
		<path class="st3" d="M135.23,76.98v-5.68h1.19v0.85c0.34-0.54,0.93-0.96,1.58-0.96v1.16c-0.08-0.03-0.2-0.03-0.31-0.03
			c-0.48,0-1.05,0.37-1.27,0.79V77L135.23,76.98z"/>
		<path class="st3" d="M138.99,69.82c0-0.42,0.34-0.74,0.76-0.74c0.4,0,0.74,0.34,0.74,0.74s-0.34,0.74-0.74,0.74
			C139.33,70.56,138.99,70.25,138.99,69.82 M139.14,71.29h1.19v5.68h-1.19V71.29z"/>
		<path class="st3" d="M142.19,75.7v-3.39h-0.74v-1.02h0.76v-1.56h1.19v1.56h0.96v1.02h-0.96v3.14c0,0.4,0.14,0.62,0.45,0.62
			c0.2,0,0.37-0.08,0.45-0.2l0.28,0.88c-0.23,0.2-0.54,0.34-1.05,0.34C142.61,77.12,142.19,76.64,142.19,75.7"/>
		<path class="st3" d="M145.56,78.16c0.11,0.06,0.28,0.08,0.37,0.08c0.31,0,0.54-0.11,0.65-0.48l0.23-0.68l-1.92-5.8h1.27l1.27,4.27
			l1.3-4.27H150l-2.26,6.76c-0.31,0.96-0.88,1.24-1.7,1.24c-0.17,0-0.48-0.03-0.65-0.08L145.56,78.16z"/>
		<path class="st3" d="M153.42,74.12c0-1.61,0.85-3,2.49-3c1.64,0,2.49,1.39,2.49,3s-0.85,3-2.49,3
			C154.29,77.12,153.42,75.73,153.42,74.12 M157.18,74.12c0-1.02-0.4-1.95-1.27-1.95c-0.88,0-1.27,0.9-1.27,1.95
			c0,1.02,0.4,1.95,1.27,1.95C156.78,76.07,157.18,75.17,157.18,74.12"/>
		<path class="st3" d="M160.01,76.98v-4.67h-0.74v-1.02h0.74v-0.54c0-1.1,0.62-1.75,1.61-1.75c0.42,0,0.85,0.11,1.16,0.4l-0.4,0.82
			c-0.17-0.14-0.31-0.23-0.54-0.23c-0.42,0-0.65,0.28-0.65,0.76v0.54h0.96v1.02h-0.96v4.67H160.01z"/>
		<path class="st3" d="M165.8,73.05c0-2.38,1.24-4.07,3.25-4.07c1.39,0,2.09,0.85,2.52,1.73l-1.1,0.48
			c-0.28-0.62-0.76-1.05-1.41-1.05c-1.16,0-1.89,1.22-1.89,2.91c0,1.67,0.74,2.91,1.89,2.91c0.68,0,1.19-0.51,1.41-1.16l1.1,0.48
			c-0.4,0.9-1.13,1.84-2.52,1.84C167.05,77.12,165.8,75.42,165.8,73.05"/>
		<path class="st3" d="M172.62,69.82c0-0.42,0.34-0.74,0.76-0.74c0.4,0,0.74,0.34,0.74,0.74s-0.34,0.74-0.74,0.74
			C172.96,70.56,172.62,70.25,172.62,69.82 M172.79,71.29h1.19v5.68h-1.19V71.29z"/>
		<path class="st3" d="M176.83,76.98l-1.89-5.68h1.27l1.27,4.3l1.27-4.3h1.27l-1.92,5.68H176.83z"/>
		<path class="st3" d="M180.82,69.82c0-0.42,0.34-0.74,0.76-0.74c0.4,0,0.74,0.34,0.74,0.74s-0.34,0.74-0.74,0.74
			C181.16,70.56,180.82,70.25,180.82,69.82 M180.96,71.29h1.19v5.68h-1.19V71.29z"/>
		<path class="st3" d="M183.82,69.11h1.19v7.86h-1.19V69.11z"/>
		<path class="st3" d="M193.63,76.98l-0.42-1.56h-2.6l-0.42,1.56h-1.41l2.38-7.86h1.58l2.38,7.86H193.63z M191.88,70.5l-1.05,3.76
			h2.06L191.88,70.5z"/>
		<path class="st3" d="M197.05,76.98l-1.89-5.68h1.27l1.27,4.3l1.27-4.3h1.27l-1.89,5.68H197.05z"/>
		<path class="st3" d="M201.04,69.82c0-0.42,0.34-0.74,0.76-0.74c0.4,0,0.74,0.34,0.74,0.74s-0.34,0.74-0.74,0.74
			S201.04,70.25,201.04,69.82 M201.21,71.29h1.19v5.68h-1.19V71.29z"/>
		<path class="st3" d="M207.01,76.98v-0.57c-0.34,0.48-0.93,0.71-1.53,0.71c-0.93,0-1.75-0.68-1.75-1.89s0.85-1.84,1.75-1.84
			c0.59,0,1.19,0.23,1.53,0.68v-0.82c0-0.68-0.4-1.07-1.13-1.07c-0.51,0-0.99,0.2-1.44,0.65L203.98,72
			c0.59-0.57,1.36-0.82,2.12-0.82c1.22,0,2.09,0.57,2.09,1.95v3.9h-1.19L207.01,76.98z M207.01,75.68v-0.85
			c-0.23-0.4-0.65-0.62-1.07-0.62c-0.62,0-0.99,0.45-0.99,1.05c0,0.62,0.37,1.07,0.99,1.07C206.36,76.3,206.78,76.07,207.01,75.68"
			/>
		<path class="st3" d="M210.06,75.7v-3.39h-0.74v-1.02h0.74v-1.56h1.19v1.56h0.96v1.02h-0.96v3.14c0,0.4,0.14,0.62,0.45,0.62
			c0.2,0,0.37-0.08,0.45-0.2l0.28,0.88c-0.23,0.2-0.54,0.34-1.05,0.34C210.49,77.12,210.06,76.64,210.06,75.7"/>
		<path class="st3" d="M213.29,69.82c0-0.42,0.34-0.74,0.74-0.74c0.4,0,0.74,0.34,0.74,0.74s-0.34,0.74-0.74,0.74
			C213.65,70.56,213.29,70.25,213.29,69.82 M213.46,71.29h1.19v5.68h-1.19V71.29z"/>
		<path class="st3" d="M216,74.12c0-1.61,0.85-3,2.49-3c1.64,0,2.49,1.39,2.49,3s-0.85,3-2.49,3C216.85,77.12,216,75.73,216,74.12
			 M219.73,74.12c0-1.02-0.4-1.95-1.27-1.95s-1.27,0.9-1.27,1.95c0,1.02,0.4,1.95,1.27,1.95C219.37,76.07,219.73,75.17,219.73,74.12
			"/>
		<path class="st3" d="M225.5,76.98V73.1c0-0.68-0.31-0.9-0.82-0.9s-0.96,0.4-1.16,0.79V77h-1.19v-5.68h1.19v0.76
			c0.31-0.45,0.96-0.9,1.67-0.9c1.05,0,1.5,0.57,1.5,1.56v4.3h-1.19V76.98z"/>
		<path class="st3" d="M151.16,55.14c0.4,0,0.71-0.31,0.71-0.71c0-0.4-0.31-0.71-0.71-0.71c-0.4,0-0.71,0.31-0.71,0.71
			C150.45,54.83,150.76,55.14,151.16,55.14"/>
		<path class="st3" d="M153.42,55.14c0.4,0,0.71-0.31,0.71-0.71c0-0.4-0.31-0.71-0.71-0.71c-0.4,0-0.71,0.31-0.71,0.71
			C152.71,54.83,153.02,55.14,153.42,55.14"/>
		<path class="st3" d="M191.62,55.14c0.4,0,0.71-0.31,0.71-0.71c0-0.4-0.31-0.71-0.71-0.71c-0.4,0-0.71,0.31-0.71,0.71
			C190.92,54.83,191.23,55.14,191.62,55.14"/>
		<path class="st3" d="M193.89,55.14c0.4,0,0.71-0.31,0.71-0.71c0-0.4-0.31-0.71-0.71-0.71c-0.4,0-0.71,0.31-0.71,0.71
			C193.18,54.83,193.52,55.14,193.89,55.14"/>
		<path class="st3" d="M207.8,56.84l-0.11-0.9c-0.51,0.08-1.64,0.42-1.75-0.34c-0.06-0.4,0.23-0.79,0.62-0.88
			c0.31-0.06,0.65,0.06,0.93,0.17l0.28-0.88c-0.65-0.2-1.36-0.28-1.92,0.14c-0.62,0.42-0.85,1.33-0.45,1.98
			c-0.57,0.03-1.02,0.03-1.02,0.03v0.68c0.68,0.03,1.33,0.06,2.01,0.06C206.5,56.9,207.32,56.87,207.8,56.84"/>
		<path class="st3" d="M122.9,64.14c-0.4,0-0.71,0.31-0.71,0.71c0,0.4,0.31,0.71,0.71,0.71c0.4,0,0.71-0.31,0.71-0.71
			C123.61,64.48,123.3,64.14,122.9,64.14"/>
		<path class="st3" d="M125.17,64.14c-0.4,0-0.71,0.31-0.71,0.71c0,0.4,0.31,0.71,0.71,0.71s0.71-0.31,0.71-0.71
			C125.87,64.48,125.56,64.14,125.17,64.14"/>
		<path class="st3" d="M208.99,64.14c-0.4,0-0.71,0.31-0.71,0.71c0,0.4,0.31,0.71,0.71,0.71s0.71-0.31,0.71-0.71
			C209.7,64.48,209.38,64.14,208.99,64.14"/>
		<path class="st3" d="M211.25,64.14c-0.4,0-0.71,0.31-0.71,0.71c0,0.4,0.31,0.71,0.71,0.71s0.71-0.31,0.71-0.71
			C211.96,64.48,211.65,64.14,211.25,64.14"/>
		<path class="st3" d="M69.59,65.83c-0.4,0-0.71,0.31-0.71,0.71s0.31,0.71,0.71,0.71s0.71-0.31,0.71-0.71S69.99,65.83,69.59,65.83"
			/>
		<path class="st3" d="M71.86,65.83c-0.4,0-0.71,0.31-0.71,0.71s0.31,0.71,0.71,0.71s0.71-0.31,0.71-0.71S72.25,65.83,71.86,65.83"
			/>
		<path class="st3" d="M109.44,57.92c0.4,0,0.71-0.31,0.71-0.71c0-0.4-0.31-0.71-0.71-0.71s-0.71,0.31-0.71,0.71
			C108.73,57.6,109.05,57.92,109.44,57.92"/>
		<path class="st3" d="M77.29,56.56c0.4,0,0.71-0.31,0.71-0.71s-0.31-0.71-0.71-0.71c-0.4,0-0.71,0.31-0.71,0.71
			S76.89,56.56,77.29,56.56"/>
		<path class="st3" d="M225.39,54.04h1.22v8.65h-1.22V54.04z"/>
		<path class="st3" d="M184.41,54.04h1.22v8.65h-1.22V54.04z"/>
		<path class="st3" d="M114.56,54.04h1.22v8.65h-1.22V54.04z"/>
		<path class="st3" d="M222.2,60.91c0,0.45-0.37,0.82-0.82,0.82h-3.39c0.03-0.03,0.06-0.06,0.06-0.08c0.25-0.34,0.54-0.96,0.28-1.84
			c-0.14-0.54-0.62-2.21-1.81-2.23h-0.03c-1.39,0-2.26,2.35-2.4,2.8c-0.08,0.28-0.23,0.76-0.34,1.33c-0.54,0-3,0-3,0
			c0.11-0.25,0.17-0.54,0.17-0.82v-2.97h-1.22v2.97c0,0.45-0.37,0.82-0.82,0.82h-0.74c-0.45,0-0.82-0.37-0.82-0.82v-2.97h-1.22v2.97
			c0,0.45-0.37,0.82-0.82,0.82h-10.35c-0.45,0-0.82-0.37-0.82-0.82v-4.5h-1.22v0.57c-0.34,0.11-0.99,0.31-1.67,0.62
			c-1.44,0.65-2.23,1.44-2.43,2.32c-0.08,0.45,0.03,0.85,0.31,1.16c0.17,0.2,0.82,0.71,2.55,0.71c0.4,0,0.85-0.03,1.39-0.08
			c0.31,0.74,1.05,1.24,1.87,1.24h10.35c0.57,0,1.07-0.23,1.44-0.59c0.37,0.37,0.88,0.59,1.44,0.59h0.74c0.54,0,1.05-0.23,1.41-0.57
			v0.57h3.37c0.03,1.13,0.4,2.26,1.67,2.8c0.34,0.14,0.71,0.2,1.07,0.2c0.96,0,1.89-0.45,2.26-1.22c0.17-0.31,0.34-1.02-0.25-1.81
			h2.97c1.13,0,2.04-0.9,2.04-2.04v-6.87h-1.22L222.2,60.91z M190.01,60.29c0-0.03-0.03-0.03,0-0.08c0.14-0.74,1.64-1.5,2.88-1.89
			v2.23C191.71,60.66,190.3,60.6,190.01,60.29 M215.24,60.8c0.42-1.24,1.05-1.98,1.24-1.98s0.31,0.11,0.68,1.33
			c0.11,0.42,0,0.65-0.08,0.76c-0.34,0.42-1.19,0.65-2.09,0.74C215.07,61.39,215.15,61.11,215.24,60.8 M217.59,64.22
			c-0.17,0.37-1.05,0.71-1.81,0.4c-0.62-0.25-0.93-0.85-0.93-1.73c0.65-0.06,1.33-0.17,1.89-0.37l-0.23,0.42
			C217.3,63.43,217.73,63.91,217.59,64.22"/>
		<path class="st3" d="M100.19,54.04h1.22v8.65h-1.22V54.04z"/>
		<path class="st3" d="M97.03,60.91c0,0.45-0.37,0.82-0.82,0.82h-2.4c0.03-0.06,0.03-0.08,0.06-0.14c0.37-0.93,0.14-2.06-0.17-2.71
			c-0.42-0.9-1.19-1.44-2.01-1.44c-0.82,0-1.58,0.54-2.04,1.47c-0.23,0.45-0.37,0.88-0.51,1.27c-0.37,1.1-0.54,1.56-1.75,1.56h-1.16
			c-0.28-2.94-3-4.38-3.11-4.47l-0.57,1.07c0.03,0,2.18,1.16,2.46,3.37h-3.79v1.22h6.19c0.88,0,1.47-0.23,1.87-0.57
			c0.59,0.4,1.5,0.57,2.29,0.57c0.45,0,0.85-0.06,1.13-0.17c0.06-0.03,0.14-0.06,0.2-0.08v0.25h3.31c1.13,0,2.04-0.9,2.04-2.04
			v-6.87h-1.22L97.03,60.91z M92.73,61.17c-0.08,0.25-0.25,0.4-0.48,0.48c-0.51,0.2-1.81,0.03-2.29-0.25
			c0.11-0.28,0.23-0.57,0.31-0.85c0.11-0.37,0.25-0.74,0.42-1.1c0.25-0.48,0.59-0.79,0.96-0.79c0.34,0,0.68,0.28,0.9,0.76
			C92.78,59.9,92.93,60.63,92.73,61.17"/>
		<path class="st3" d="M163.97,57.46c-0.85,0-1.61,0.54-2.06,1.47c-0.23,0.45-0.37,0.88-0.48,1.24c-0.37,1.1-0.54,1.56-1.75,1.56
			h-4.95c-0.45,0-0.82-0.37-0.82-0.82v-4.5h-1.22v0.57c-0.34,0.11-0.99,0.31-1.67,0.62c-1.44,0.65-2.23,1.44-2.43,2.32
			c-0.08,0.45,0.03,0.85,0.31,1.16c0.17,0.2,0.82,0.71,2.55,0.71c0.4,0,0.85-0.03,1.39-0.08c0.31,0.74,1.05,1.24,1.87,1.24h4.95
			c0.88,0,1.47-0.23,1.87-0.57c0.9,0.59,2.66,0.71,3.42,0.4c0.54-0.2,0.96-0.62,1.16-1.19c0.37-0.93,0.14-2.06-0.17-2.71
			C165.55,58,164.79,57.46,163.97,57.46 M149.8,60.29c0,0-0.03-0.03,0-0.08c0.14-0.74,1.64-1.5,2.88-1.89v2.23
			C151.49,60.66,150.11,60.6,149.8,60.29 M165.01,61.17c-0.08,0.25-0.25,0.4-0.48,0.48c-0.51,0.2-1.81,0.03-2.29-0.25
			c0.11-0.28,0.23-0.57,0.31-0.85c0.11-0.37,0.25-0.74,0.42-1.1c0.25-0.48,0.59-0.79,0.96-0.79c0.34,0,0.68,0.28,0.9,0.76
			C165.1,59.9,165.24,60.63,165.01,61.17"/>
		<path class="st3" d="M143.77,60.91c0,0.45-0.37,0.82-0.82,0.82h-0.74c-0.45,0-0.82-0.37-0.82-0.82v-6.87h-1.22v6.87
			c0,0.45-0.37,0.82-0.82,0.82h-1.75c-0.03-1.22-0.25-2.71-1.24-3.56c-1.16-0.96-2.74-0.37-3.85,0.34c-0.65,0.4-1.24,0.9-1.81,1.44
			v-5.94h-1.22v7.69h-4.98c0.11-0.25,0.17-0.54,0.17-0.82v-2.97h-1.22v2.97c0,0.45-0.37,0.82-0.82,0.82h-2.57
			c-0.45,0-0.82-0.37-0.82-0.82v-2.97h-1.27v4.72c0,0.93-0.76,1.7-1.7,1.7v1.22c1.56,0,2.86-1.24,2.91-2.8
			c0.25,0.11,0.54,0.17,0.82,0.17h2.57c0.42,0,0.79-0.11,1.1-0.34v0.34h15.61c0.57,0,1.07-0.23,1.44-0.59
			c0.37,0.37,0.88,0.59,1.44,0.59h0.74c1.13,0,2.04-0.9,2.04-2.04v-6.87h-1.22v6.9H143.77z M130.68,61.31
			c0.51-0.48,1.05-0.93,1.64-1.33c0.65-0.45,1.39-0.9,2.18-1.02c0.34-0.06,0.71-0.06,0.96,0.17c0.25,0.17,0.4,0.45,0.51,0.71
			c0.25,0.59,0.34,1.27,0.37,1.92h-5.68L130.68,61.31z"/>
		<path class="st3" d="M78.53,60.91c0,0.45-0.37,0.82-0.82,0.82h-0.54c-0.48,0-0.88-0.37-0.88-0.82V59.3c0-0.51-0.2-0.93-0.57-1.22
			c-0.42-0.34-0.99-0.42-1.61-0.28c-1.13,0.25-1.95,1.22-1.95,2.26v2.77c0,0.34-0.31,0.54-0.57,0.65c-0.79,0.34-2.18,0.23-3-0.59
			c-0.79-0.76-0.9-1.98-0.31-3.54l-1.13-0.42c-1.05,2.71-0.06,4.19,0.59,4.84c0.79,0.76,1.89,1.1,2.86,1.1
			c0.54,0,1.05-0.11,1.47-0.28c0.82-0.34,1.3-0.99,1.3-1.75v-2.77c0-0.48,0.42-0.93,1.02-1.07c0.28-0.06,0.51,0,0.59,0.06
			c0.03,0.03,0.11,0.08,0.11,0.28v1.61c0,1.1,0.96,2.04,2.09,2.04h0.54c1.13,0,2.04-0.9,2.04-2.04v-2.97h-1.22v2.94L78.53,60.91z"/>
		<path class="st3" d="M111.51,62.84c0,0.34-0.31,0.54-0.57,0.65c-0.79,0.34-2.18,0.23-3.03-0.59c-0.79-0.76-0.9-1.98-0.31-3.54
			l-1.13-0.42c-1.05,2.71-0.06,4.19,0.59,4.84c0.79,0.76,1.89,1.1,2.86,1.1c0.54,0,1.05-0.11,1.47-0.28c0.82-0.34,1.3-0.99,1.3-1.75
			v-4.86h-1.22L111.51,62.84z"/>
		<path class="st3" d="M181.22,60.91c0,0.45-0.37,0.82-0.82,0.82h-0.45c-1.19,0.03-2.21-0.08-3.03-0.28
			c0.03-0.03,0.06-0.06,0.08-0.08c0.25-0.23,1.56-1.39,1.36-2.57c-0.06-0.4-0.34-0.9-1.16-1.22l-0.06-0.03h-0.06
			c-1.07-0.14-2.21-0.14-3.28-0.03h-0.06l-0.06,0.03c-0.68,0.25-0.93,0.68-0.99,1.02c-0.23,1.05,0.85,2.23,1.33,2.71
			c0.08,0.08,0.14,0.14,0.23,0.2c-0.68,0.17-1.41,0.23-2.26,0.23h-1.78c-0.45,0-0.82-0.37-0.82-0.82v-6.87h-1.22v6.87
			c0,1.13,0.9,2.04,2.04,2.04H172c1.41,0,2.55-0.11,3.65-0.65c1.13,0.45,2.57,0.65,4.36,0.65h0.42c1.13,0,2.04-0.9,2.04-2.04v-6.87
			h-1.22v6.9L181.22,60.91z M176.24,60.46c-0.23,0.2-0.45,0.37-0.68,0.48c-0.28-0.14-0.51-0.31-0.71-0.51
			c-0.68-0.68-1.05-1.33-0.99-1.58c0-0.03,0.08-0.08,0.14-0.11c0.96-0.08,1.89-0.08,2.86,0.03c0.14,0.06,0.28,0.14,0.31,0.25
			C177.23,59.36,176.81,59.98,176.24,60.46"/>
	</g>
</g>
</svg>
