<?xml version="1.0" encoding="utf-8"?>
<!-- Generator: Adobe Illustrator 27.10.0, SVG Export Plug-In . SVG Version: 6.00 Build 0)  -->
<svg version="1.1" id="Layer_1" xmlns="http://www.w3.org/2000/svg" xmlns:xlink="http://www.w3.org/1999/xlink" x="0px" y="0px"
	 viewBox="0 0 208.37 80" style="enable-background:new 0 0 208.37 80;" xml:space="preserve">
<style type="text/css">
	.st0{fill:#BF9B5F;}
	.st1{fill:#00263E;}
</style>
<g>
	<g>
		<path class="st0" d="M1.3,45.49c0.33,0.38,0.64,0.78,0.97,1.15c1.42,1.62,3.18,2.81,5.08,3.78c1.8,0.92,3.69,1.69,5.5,2.58
			c1.56,0.78,3.12,1.57,4.58,2.49c2.89,1.81,4.39,4.49,4.93,7.86c0.38,2.36,1.08,4.67,1.74,6.97c0.33,1.14,0.94,2.19,2.28,2.44
			c0.72-0.11,0.99-0.69,1.28-1.22c1.33-2.39,1.24-4.91,0.5-7.4c-0.93-3.13-2.56-5.82-5.15-7.93c-2.56-2.09-4.02-4.8-4.06-8.2
			c-0.04-3-1.19-4.49-4.11-5.31c-1.85-0.52-3.76-0.86-5.63-1.29c-2.08-0.47-3.85-1.45-5.32-3.02c-0.93-1-1.95-1.91-2.93-2.85
			c0.18-1.07,0.34-2.02,0.54-3.2c1.08,1.04,2.08,1.85,2.87,2.82c2.13,2.59,4.9,3.86,8.16,4.29c1.2,0.16,2.41,0.44,3.57,0.82
			c3.27,1.09,5.15,3.29,5.41,6.82c0.13,1.82,0.2,3.71,1.49,5.2c0.74,0.85,1.51,1.69,2.35,2.43c2.88,2.57,4.63,5.78,5.57,9.48
			c0.8,3.15,0.53,6.14-1.13,8.99c-1.98,3.42-5.87,2.38-7.29,0.02c-1.04-1.73-1.56-3.63-2.06-5.54c-0.38-1.45-0.68-2.94-0.89-4.42
			c-0.34-2.36-1.58-4.09-3.45-5.45c-1.89-1.37-4.07-2.15-6.14-3.16c-2.28-1.12-4.5-2.36-6.74-3.57c-0.93-0.5-1.48-1.25-1.62-2.34
			c-0.13-1.06-0.39-2.1-0.59-3.15C1.14,45.56,1.22,45.52,1.3,45.49z"/>
		<path class="st0" d="M21.75,5.76c0.94-0.42,1.69-0.76,2.46-1.11c1.24,2.07,2.43,4.04,3.6,6.02c0.97,1.63,2.22,2.93,4.12,3.43
			c4.73,1.24,6.85,4.64,7.65,9.16c0.27,1.53,0.58,3.05,0.87,4.57c0.59,3.19,2.2,5.74,4.68,7.83c1.47,1.24,2.77,2.68,4.05,4.12
			c0.96,1.08,1.37,2.45,1.71,3.84c0.19,0.78,0.37,1.56,0.59,2.32c0.35,1.16,1,2.13,2.02,2.82c0.7,0.47,1.42,0.94,2.16,1.34
			c3.79,2.04,5.69,5.16,5.75,9.5c0.03,2.62-0.52,5.14-0.93,7.69c-0.3,1.86-0.6,3.71-0.95,5.84c-0.58,0.34-1.37,0.8-2.26,1.32
			c-0.29-2.28-0.05-4.33,0.29-6.37c0.39-2.32,0.93-4.62,1.19-6.95c0.39-3.48-0.62-6.44-3.81-8.33c-0.81-0.48-1.64-0.92-2.43-1.44
			c-1.94-1.26-3.36-2.98-3.76-5.26c-0.56-3.24-2.02-5.84-4.65-7.79c-0.41-0.31-0.74-0.73-1.14-1.05c-3.14-2.54-4.66-5.94-5.32-9.84
			c-0.29-1.76-0.68-3.5-1.08-5.25c-0.63-2.76-2.26-4.61-5.04-5.37c-2.58-0.7-4.52-2.21-5.87-4.55C24.44,10.15,23.14,8.07,21.75,5.76
			z"/>
		<path class="st0" d="M13.69,11.32c0.68-0.58,1.28-1.1,1.97-1.7c1.81,1.76,3.53,3.47,5,5.44c2.35,3.14,3.56,6.7,4.22,10.51
			c0.18,1.02,0.44,2.02,0.69,3.02c0.78,3.08,2.61,5.42,5.24,7.11c2.21,1.43,4.51,2.73,6.76,4.1c1.78,1.08,3.47,2.25,4.95,3.74
			c2.29,2.3,3.46,5.07,3.9,8.27c0.4,2.89-0.01,5.72-0.23,8.58c-0.22,2.9-0.65,5.79-0.16,8.73c0.34,2.01,1.08,3.79,2.24,5.43
			c0.63,0.88,1.28,1.74,2.05,2.77c-1.01,0.23-1.9,0.44-2.78,0.64c-2.58-2.95-4.18-6.16-4.27-10.02c-0.08-3.35,0.19-6.67,0.51-10.01
			c0.2-2.01,0.21-4.07-0.03-6.07c-0.42-3.57-2.32-6.34-5.33-8.27c-2.5-1.6-5.07-3.09-7.59-4.64c-2.55-1.58-4.84-3.45-6.38-6.08
			c-1.13-1.94-1.64-4.09-2.06-6.28c-0.43-2.22-0.88-4.43-1.85-6.5c-1.14-2.47-2.8-4.57-4.64-6.54
			C15.21,12.84,14.5,12.15,13.69,11.32z"/>
		<path class="st0" d="M33.56,78.48c-0.89-0.18-1.62-0.33-2.48-0.51c0.1-0.53,0.16-0.98,0.28-1.42c0.67-2.48,1.91-4.7,3.13-6.94
			c1.2-2.19,2.39-4.38,2.96-6.84c1.06-4.54-1.02-9.31-5.09-11.57c-0.5-0.27-0.99-0.55-1.51-0.77c-4.94-2.11-7.75-6.07-9.58-10.93
			c-0.72-1.93-1.47-3.88-2.47-5.69c-1.88-3.39-4.8-5.67-8.47-6.87c-1.91-0.63-3.91-0.97-5.88-1.44c-0.22-0.05-0.43-0.09-0.78-0.17
			c0.36-0.81,0.67-1.52,1.05-2.41c0.84,0.12,1.67,0.2,2.48,0.36c4.34,0.86,8.28,2.55,11.41,5.78c2.34,2.41,3.81,5.36,4.84,8.52
			c0.75,2.31,1.75,4.46,3.24,6.39c1.17,1.53,2.62,2.7,4.32,3.57c0.84,0.43,1.71,0.8,2.53,1.27c4.78,2.75,6.98,6.98,6.84,12.41
			c-0.05,1.93-0.67,3.79-1.47,5.57c-0.35,0.77-0.72,1.54-1.12,2.28C36.24,72.09,34.42,74.97,33.56,78.48z"/>
		<path class="st0" d="M65.85,68.22c-0.18-1.52-0.27-2.83-0.49-4.12c-0.6-3.48-1.34-6.92-2.53-10.26c-0.97-2.7-2.71-4.82-4.87-6.64
			c-1.04-0.88-2.04-1.81-3.02-2.76c-2.26-2.19-3.18-4.98-3.35-8.02c-0.08-1.45,0.28-2.91,1.12-4.17c1.58-2.4,4.78-3.1,7.38-1.61
			c1.33,0.77,2.4,1.85,3.24,3.11c0.85,1.29,1.61,2.66,2.27,4.06c1.3,2.73,2.73,5.38,4.5,7.83c1.66,2.32,3.66,4.3,6.21,5.79
			c-0.29,0.82-0.57,1.6-0.86,2.43c-1.79-0.7-3.12-1.83-4.37-3.03c-2.65-2.53-4.62-5.58-6.33-8.79c-0.84-1.58-1.54-3.24-2.42-4.79
			c-0.67-1.18-1.48-2.28-2.34-3.34c-0.4-0.49-1.01-0.85-1.6-1.11c-1.59-0.69-3.19,0.02-3.77,1.65c-0.56,1.58-0.32,3.15,0.19,4.7
			c0.68,2.04,2.02,3.59,3.63,4.95c0.86,0.73,1.76,1.43,2.59,2.19c2.7,2.47,4.26,5.61,5.15,9.09c0.69,2.68,1.11,5.44,1.85,8.11
			C68.61,65.68,67.59,66.96,65.85,68.22z"/>
		<path class="st0" d="M27.78,3.32c0.91-0.25,1.67-0.46,2.51-0.69c0.14,0.41,0.28,0.75,0.36,1.1c0.36,1.58,1.28,2.69,2.71,3.43
			c0.88,0.45,1.72,0.98,2.59,1.44c4.75,2.44,7.31,6.48,8.44,11.55c0.22,1.01,0.34,2.04,0.59,3.04c0.21,0.81,0.48,1.63,0.87,2.37
			c0.49,0.93,1.32,1.45,2.41,1.46c1.48,0.01,2.45-1.13,1.96-2.51c-0.47-1.32-1.16-2.56-1.78-3.83c-0.35-0.72-0.79-1.4-1.13-2.12
			c-0.64-1.33-1.02-2.72-0.94-4.23c0.05-0.84,0.07-1.7-0.03-2.54c-0.2-1.65-1.01-3.02-2.16-4.19c-1.23-1.24-2.49-2.44-3.72-3.67
			c-0.66-0.66-1.29-1.36-2.14-2.27c1.79-0.11,3.26-0.49,4.51,0.87c1.3,1.42,2.77,2.68,4.04,4.13c1.41,1.6,2.27,3.51,2.08,5.69
			c-0.23,2.61,0.47,4.92,1.86,7.09c0.6,0.95,1.11,1.98,1.51,3.03c0.32,0.82,0.49,1.71,0.61,2.58c0.43,3.13-3.2,5.43-5.91,4.52
			c-1.64-0.56-2.89-1.48-3.7-3.05c-0.83-1.62-1.11-3.39-1.41-5.15c-0.34-1.97-1-3.81-1.98-5.55c-1.33-2.35-3.33-3.92-5.69-5.12
			c-0.92-0.47-1.81-1.01-2.71-1.52c-1.63-0.93-2.74-2.26-3.24-4.09C28.16,4.54,27.98,4.01,27.78,3.32z"/>
		<path class="st0" d="M49.46,3c0.17-0.02,0.22-0.04,0.25-0.03c4.08,1.36,3.2,0.32,4.68,4.42c1,2.78,1.75,5.67,2.39,8.55
			c0.91,4.13,3.13,7.32,6.51,9.74c2.26,1.61,4.58,3.14,6.9,4.66c2.26,1.48,4.26,3.23,6.16,5.15c2,2.03,1.73,4.37,1.48,7
			c-0.99-1.56-1.8-2.93-2.72-4.23c-1.63-2.31-3.85-3.99-6.16-5.54c-2.34-1.58-4.74-3.08-7.05-4.7c-3.7-2.61-6.33-6.02-7.44-10.48
			c-0.33-1.32-0.59-2.67-1-3.96c-0.79-2.56-1.61-5.11-2.51-7.63C50.59,4.95,49.98,4.03,49.46,3z"/>
		<path class="st0" d="M76.59,30.58c-1.75-1.3-3.33-2.31-4.73-3.54c-3.02-2.65-5.67-5.66-8.01-8.92c-1.9-2.64-2.95-5.66-3.81-8.76
			c-0.18-0.63-0.33-1.26-0.55-2.15c1.13,0.78,2.1,1.39,3,2.1c0.3,0.24,0.51,0.67,0.62,1.06c1.11,4.02,3.49,7.26,6.22,10.31
			c1.76,1.97,3.52,3.93,5.69,5.47c0.19,0.13,0.39,0.3,0.47,0.51C75.95,27.81,76.42,28.97,76.59,30.58z"/>
		<path class="st0" d="M3.68,55.02c8.3,1.84,13.99,7.82,13.38,16.75c-0.22-0.13-0.43-0.24-0.62-0.38c-0.64-0.48-1.27-0.97-1.9-1.45
			c-0.11-0.64-0.22-1.23-0.3-1.83c-0.56-3.84-2.8-6.47-5.98-8.45c-0.44-0.27-0.89-0.58-1.37-0.71C4.91,58.43,4.34,56.82,3.68,55.02z
			"/>
	</g>
	<g>
		<g>
			<path class="st1" d="M97.59,38.12c-1.96,0-3.92,0-6.27,0c1.73-1.24,1.49-2.8,1.49-4.29c0.01-4.89,0.01-9.77,0.01-14.66
				c0-1.32,0.08-2.67-1.42-3.7c0.56-0.1,0.86-0.21,1.15-0.21c2.51-0.01,5.03-0.08,7.54,0.05c1.3,0.07,2.63,0.37,3.86,0.8
				c1.7,0.59,2.93,1.76,3.14,3.68c0.25,2.21-0.41,4.07-2.37,5.25c-0.95,0.57-2.04,0.9-3.04,1.33c2.3,0.38,3.51,2.07,4.37,4.13
				c0.71,1.71,1.42,3.41,2.11,5.12c0.47,1.14,1.04,2.14,2.46,2.19c-0.04,0.19-0.03,0.33-0.07,0.35c-2.42,0.99-4.66,0.27-5.79-1.99
				c-0.86-1.73-1.55-3.56-2.32-5.34c-0.34-0.78-0.68-1.57-1.07-2.32c-0.52-1.01-1.35-1.56-2.52-1.54c-0.71,0.01-1.41,0-2.21,0
				c-0.05,0.44-0.11,0.81-0.12,1.17c-0.01,2.04-0.01,4.08-0.01,6.12c0.01,1.32-0.14,2.69,1.33,3.57
				C97.76,37.93,97.68,38.02,97.59,38.12z M96.59,25.87c1.36-0.12,2.54-0.15,3.69-0.36c1.49-0.27,2.58-1.13,3.04-2.64
				c0.57-1.87,0.29-3.61-1.12-4.98c-1.58-1.55-3.57-1.65-5.62-1.31C96.59,19.68,96.59,22.65,96.59,25.87z"/>
			<path class="st1" d="M145.82,38.14c-1.63,0.11-2.89,0.16-4.14-0.02c-0.32-0.05-0.67-0.49-0.84-0.83
				c-0.18-0.36-0.17-0.82-0.25-1.34c-0.43,0.38-0.81,0.72-1.19,1.05c-3.56,3.04-7.56,1.5-9.51-1.09
				c-3.78-5.02-1.29-13.03,5.33-14.15c1.48-0.25,2.92-0.28,4.36,0.11c0.3,0.08,0.62,0.16,1.12,0.28c0-1.11,0-2.09,0-3.07
				c0-0.71,0-1.43,0-2.13c-0.01-1.15,0.09-2.35-1.28-2.86c0.7-0.9,3.13-2.06,4.69-2.26c0.03,0.51,0.08,1.01,0.08,1.51
				c0.01,6.55,0.01,13.1,0.01,19.65c0,0.24-0.01,0.48,0,0.71C144.23,35.23,144.1,36.83,145.82,38.14z M140.7,34.74
				c0-2.14-0.06-4.32,0.02-6.49c0.06-1.66-0.58-2.92-1.78-4c-1.31-1.18-2.79-1.57-4.47-1.02c-1.72,0.56-2.59,1.93-2.84,3.6
				c-0.35,2.39,0.01,4.72,1.13,6.9C134.4,36.9,138.33,37.49,140.7,34.74z"/>
			<path class="st1" d="M155.16,36.26c-0.02-1.73-0.46-3.34,0.02-5.31c0.36,0.56,0.57,0.84,0.73,1.15c1.51,3,3.99,4.62,7.26,5.07
				c1.26,0.18,2.46-0.07,3.56-0.73c1.76-1.06,2.18-3.15,0.94-4.8c-0.79-1.05-1.85-1.77-3.02-2.31c-1.51-0.69-3.05-1.3-4.56-1.97
				c-0.73-0.33-1.44-0.71-2.15-1.11c-3.71-2.07-3-7.56-0.29-9.47c1.23-0.87,2.57-1.39,4.05-1.62c2.89-0.44,5.65-0.05,8.28,1.11
				c0.37,1.15,0.45,3.08,0.18,4.53c-0.24-0.21-0.49-0.34-0.59-0.54c-1.33-2.49-3.53-3.62-6.2-3.99c-1.31-0.18-2.55,0.12-3.69,0.79
				c-1.91,1.13-2.28,3.37-0.72,4.96c0.71,0.73,1.63,1.3,2.54,1.77c1.13,0.58,2.37,0.96,3.54,1.48c1.16,0.52,2.36,1.02,3.43,1.71
				c3.26,2.11,3.72,6.05,1.1,8.95c-1.7,1.89-3.93,2.67-6.37,2.67c-2.58,0-5.09-0.54-7.35-1.88
				C155.61,36.58,155.43,36.44,155.16,36.26z"/>
			<path class="st1" d="M202.4,26.88c-0.07-0.45-0.12-0.82-0.2-1.18c-0.33-1.56-1.34-2.47-2.91-2.67c-2.05-0.26-3.85,0.28-5.38,1.67
				c-0.34,0.31-0.68,0.62-1.21,0.81c0.04-0.19,0.02-0.42,0.13-0.55c2.1-2.47,5.33-4.08,9.02-3.21c2.3,0.55,3.69,2.16,3.82,4.52
				c0.1,1.8,0.04,3.61,0.07,5.41c0.02,1.18,0.09,2.37,0.14,3.55c0.04,1.01,0.13,2.01,1.51,2.63c-0.58,0.19-0.82,0.32-1.05,0.32
				c-0.81,0.03-1.61,0.04-2.42,0.01c-1.21-0.05-1.46-0.3-1.47-1.57c-0.02-1.28-0.01-2.56-0.01-4.11c-0.26,0.63-0.41,1.03-0.59,1.42
				c-0.53,1.18-1.18,2.28-2.17,3.13c-1.32,1.13-2.83,1.66-4.6,1.43c-1.7-0.22-2.99-1-3.53-2.67c-0.56-1.74-0.37-3.43,1-4.73
				c0.74-0.7,1.63-1.36,2.57-1.74c2.02-0.81,4.11-1.41,6.18-2.1C201.67,27.14,202.01,27.02,202.4,26.88z M202.42,28.19
				c-0.86,0.23-1.59,0.41-2.31,0.62c-0.82,0.24-1.63,0.46-2.42,0.76c-0.61,0.23-1.23,0.51-1.76,0.88c-1.46,0.99-1.89,3.01-0.99,4.37
				c0.9,1.36,2.89,1.63,4.41,0.58c0.12-0.08,0.23-0.17,0.33-0.26C201.68,33.28,202.27,30.88,202.42,28.19z"/>
			<path class="st1" d="M188.95,28.38c-4.03,0-8.09,0-12.12,0c-0.41,2.6,0.98,5.44,3.13,6.6c2.86,1.54,5.97,0.97,9.12-1.78
				c0.02,0.33,0.13,0.63,0.04,0.77c-1.76,2.5-3.94,4.37-7.16,4.58c-4.11,0.27-7.95-2.48-8.29-6.99c-0.19-2.46,0.32-4.7,1.84-6.69
				c2.08-2.73,5.89-3.99,9.16-3.02C187.41,22.67,189.33,25.5,188.95,28.38z M176.93,27.16c2.93,0,5.75,0,8.58,0
				c-0.51-2.83-1.89-4.18-4.21-4.17C179.06,23,177.35,24.58,176.93,27.16z"/>
			<path class="st1" d="M125.75,28.4c-4.15,0-8.2,0-12.23,0c-0.35,2.65,0.95,5.34,3.05,6.53c2.81,1.59,5.83,1.06,9.24-1.71
				c0,0.33,0.09,0.63-0.02,0.78c-1.77,2.5-3.99,4.35-7.18,4.54c-4.03,0.25-7.72-2.39-8.2-6.61c-0.44-3.81,0.77-6.92,4.04-9.07
				c1.95-1.28,4.1-1.67,6.39-1.13C123.93,22.48,125.78,24.91,125.75,28.4z M122.16,27.15c-0.3-2.74-1.91-4.25-4.39-4.16
				c-2.13,0.08-3.98,1.94-4.06,4.16C116.52,27.15,119.34,27.15,122.16,27.15z"/>
		</g>
		<g>
			<path class="st1" d="M136.02,67.04c-0.43,0.62-0.78,1.11-1.18,1.67c-0.51-0.52-0.34-1.06-0.34-1.54
				c-0.02-4.89-0.01-9.77-0.01-14.66c0-0.33-0.02-0.67,0.01-1c0.07-1.03-0.03-2-1.22-2.71c1.31-0.82,2.54-1.29,3.87-1.75
				c0.43,1.1,0.17,2.15,0.22,3.16c0.05,0.99,0.01,2,0.01,2.99c0,1.04,0,2.08,0,3.27c0.51-0.25,0.91-0.46,1.32-0.65
				c2.32-1.06,4.62-1.18,6.7,0.47c2.12,1.68,2.76,3.97,2.35,6.61c-0.64,4.07-4,6.18-7.42,6.02
				C138.7,68.85,137.28,68.24,136.02,67.04z M137.38,57.48c0,1.96,0.05,3.9-0.02,5.84c-0.06,1.74,0.72,3,2.01,4.02
				c2.16,1.71,5.15,0.93,5.6-2.25c0.3-2.11-0.07-4.13-1.09-6.04C142.39,56.26,139.49,55.99,137.38,57.48z"/>
			<path class="st1" d="M104.59,60.31c1.5,0,2.78,0,4.23,0c0.03,0.83,0.06,1.65,0.07,2.49c0.01,0.81,0.01,1.61,0.01,2.35
				c-2.51,3.29-6.76,4.56-10.92,3.34c-3.88-1.14-6.16-4.02-6.59-8.03c-0.7-6.45,4.3-10.77,9.79-10.72c2.06,0.02,4.05,0.25,5.98,1.28
				c0,1.18,0,2.36,0,3.83c-0.38-0.51-0.64-0.84-0.88-1.18c-1.56-2.23-4.67-3.48-7.27-2.88c-2.61,0.6-4.16,2.32-4.56,4.88
				c-0.57,3.68,0.16,7.13,2.69,9.98c1.87,2.1,4.33,2.63,7.01,1.95c1.5-0.38,1.86-0.97,1.87-2.57c0-0.52,0.01-1.04-0.01-1.57
				C105.97,61.63,105.97,61.62,104.59,60.31z"/>
			<path class="st1" d="M151.06,58.39c1.42-2.9,5.21-3.98,7.88-2.99c1.2,0.45,1.97,1.32,2.32,2.52c0.21,0.72,0.29,1.49,0.32,2.24
				c0.05,1.71,0.01,3.42,0.02,5.13c0.01,1.85,0.01,1.85,0.99,3.22c-1,0.28-1.98,0.17-2.94,0.09c-0.66-0.06-0.91-0.63-0.92-1.25
				c-0.01-0.9-0.01-1.8-0.01-2.8c-0.52,0.87-0.93,1.66-1.44,2.38c-0.74,1.05-1.81,1.65-3.06,1.93c-1.66,0.37-3.43-0.43-4.11-1.82
				c-0.74-1.51-0.38-3.45,1-4.51c0.85-0.65,1.85-1.15,2.83-1.59c0.9-0.4,1.89-0.62,2.84-0.9c0.58-0.18,1.17-0.36,1.73-0.52
				c0.27-1.58-0.4-2.73-1.78-3.11c-1.74-0.47-3.27-0.01-4.65,1.1C151.74,57.78,151.41,58.09,151.06,58.39z M158.7,60.5
				c-1.06,0.29-1.97,0.53-2.87,0.79c-0.36,0.1-0.74,0.19-1.06,0.37c-0.57,0.31-1.18,0.62-1.65,1.05c-0.82,0.74-0.95,2.25-0.37,3.13
				c0.62,0.93,1.91,1.26,3.02,0.74c0.38-0.18,0.74-0.43,1.02-0.73C158.17,64.42,158.72,62.67,158.7,60.5z"/>
			<path class="st1" d="M117.82,62.22c0.11-3.01,1.44-5.28,4.23-6.51s5.48-0.85,7.87,1.03c2.72,2.13,2.9,6.56,0.81,9.25
				c-2.99,3.84-7.84,3.65-10.84,1.18C118.53,66.05,117.81,64.28,117.82,62.22z M129.31,63.98c0.02-1.85-0.72-4.38-1.63-5.64
				c-0.41-0.56-0.91-1.11-1.47-1.52c-2.17-1.62-4.66-0.81-5.32,1.81c-0.74,2.94,0.06,5.6,1.99,7.91c0.26,0.32,0.63,0.58,0.99,0.8
				c2.25,1.33,4.51,0.41,5.19-2.11C129.19,64.73,129.27,64.22,129.31,63.98z"/>
			<path class="st1" d="M164.18,48.69c1.4-0.62,2.59-1.15,4-1.77c0.07,0.68,0.18,1.21,0.18,1.75c0.01,5.03,0.01,10.06,0.01,15.09
				c0,0.33-0.03,0.67,0.01,1c0.11,1.28-0.33,2.69,0.86,3.81c-1.57,0-3.14,0-4.99,0c1.29-1.08,1.27-2.35,1.27-3.63
				c-0.01-4.32-0.02-8.64,0.01-12.95C165.52,50.78,165.52,49.62,164.18,48.69z"/>
			<path class="st1" d="M116.04,68.56c-1.58,0-3.16,0-4.8,0c0.99-1.46,0.99-1.46,1-3.37c0.01-4.41-0.01-8.81,0.01-13.22
				c0.01-1.18,0.13-2.38-1.3-3.29c1.42-0.63,2.61-1.15,3.76-1.65c0.63,0.46,0.41,1.03,0.41,1.51c0.02,5.16,0.01,10.33,0.01,15.5
				c0,0.43-0.01,0.85,0.01,1.28c0.02,1.13-0.11,2.31,1.17,3.04C116.22,68.44,116.13,68.5,116.04,68.56z"/>
		</g>
	</g>
</g>
</svg>
